ply
format ascii 1.0
comment Created in Blender version 4.3.2
element vertex 899
property float x
property float y
property float z
property float nx
property float ny
property float nz
property float s
property float t
element face 1648
property list uchar uint vertex_indices
end_header
-0.30319053 0.2815049 3.422184 -0.08303511 -0.8613756 0.50113606 0 0
-0.39277488 0.29439464 3.4154544 -0.30032456 -0.7744894 0.5567507 0 0
-0.38081545 0.26513672 3.376542 -0.19317997 -0.8421681 0.5034227 0 0
-0.21208274 0.31104884 3.4769974 -0.01573137 -0.83492666 0.5501365 0 0
-0.3126164 0.31126738 3.4667087 -0.13896194 -0.8062862 0.57497156 0 0
-0.21846503 0.33775097 3.514236 -0.039423227 -0.81408185 0.5794105 0 0
-0.32154942 0.33817962 3.4991183 -0.17447522 -0.7814943 0.59902006 0 0
-0.4036158 0.3203378 3.442379 -0.34670117 -0.7417484 0.57411474 0 0
0 0.3848917 3.586905 2.0853801e-07 -0.87225384 0.4890534 0 0
-0.114067584 0.36236155 3.550911 0.002132552 -0.84524554 0.5343738 0 0
5.9604645e-08 0.36302087 3.5491815 9.371562e-08 -0.85665864 0.51588386 0 0
-0.118890226 0.38452458 3.5870476 -0.011895069 -0.8606574 0.50904554 0 0
-0.22590476 0.36227217 3.54813 -0.061102364 -0.8204824 0.5683971 0 0
-0.10989374 0.3379012 3.5130997 0.016616596 -0.8369506 0.54702616 0 0
5.9604645e-08 0.33891848 3.5101252 7.2794387e-07 -0.8471291 0.53138715 0 0
-0.20551997 0.28181916 3.428699 0.0016866124 -0.8756242 0.48299012 0 0
-0.10656929 0.31171647 3.4729586 0.027804418 -0.8495167 0.52682877 0 0
-0.10319704 0.28217512 3.4223318 0.029372571 -0.8764418 0.48061118 0 0
1.1920929e-07 0.31301 3.4690704 -2.489345e-07 -0.8549865 0.5186505 0 0
-0.9151079 0.10228538 0.8523462 -0.26696074 -0.9602978 0.08099474 0 0
-0.8848838 0.09981287 0.9285335 -0.103777856 -0.99448884 0.014901994 0 0
-0.9045501 0.10228537 0.93845916 -0.26188463 -0.96491486 0.018867292 0 0
-0.931368 0.10228537 0.81949186 -0.22882397 -0.95723355 0.17704155 0 0
-0.89956784 0.09953659 0.8397676 -0.13398138 -0.9891767 0.05982136 0 0
-0.9208094 0.09948877 0.8049027 -0.12348438 -0.9858552 0.11331864 0 0
-0.87368065 0.09381557 0.81212926 -0.15592317 -0.98156345 0.110550106 0 0
-0.8426965 0.09540951 0.89995825 -0.103317946 -0.9931712 0.054189492 0 0
-0.9515879 0.10228537 0.80077845 -0.18171099 -0.95477223 0.23535322 0 0
-0.97381413 0.10228537 0.7855748 -0.14051421 -0.9673021 0.21114582 0 0
-0.94622934 0.099488765 0.78406715 -0.10352221 -0.9836681 0.14724255 0 0
-0.9738176 0.09948877 0.7667472 -0.097648524 -0.9813087 0.1658253 0 0
-0.9370246 0.0936243 0.75504625 -0.12363517 -0.97002184 0.20921755 0 0
-0.9031108 0.093624294 0.7778677 -0.14349635 -0.97461027 0.1718832 0 0
-0.90048707 0.10228538 1.1054231 -0.24920464 -0.96844596 0.0031001258 0 0
-0.88024044 0.10028574 1.3052738 -0.054893177 -0.9984921 0.0005338602 0 0
-0.9001242 0.10228536 1.3062425 -0.24977556 -0.96830386 0.00014737464 0 0
-0.88026726 0.10020073 1.1015235 -0.06123808 -0.9981219 0.0016525048 0 0
-0.8466325 0.09952722 1.1017329 -0.020386048 -0.9997374 0.010475567 0 0
-0.8484026 0.100000076 1.3063178 -0.0048697125 -0.999987 0.0015118705 0 0
-0.87871087 0.09981284 2.2002568 -0.09745856 -0.9951787 -0.01100974 0 0
-0.9128058 0.10228537 2.3036427 -0.24443953 -0.9671347 -0.06999911 0 0
-0.9014201 0.10228536 2.1921587 -0.22915615 -0.97330844 -0.012572458 0 0
-0.8336405 0.09540952 2.2198448 -0.12070852 -0.99138117 -0.050921395 0 0
-0.8952942 0.09953658 2.3142364 -0.14375606 -0.9876246 -0.062705025 0 0
-0.86942077 0.09381557 2.3320496 -0.20169461 -0.9670117 -0.15558872 0 0
-0.9195745 0.09948877 2.3528275 -0.14262453 -0.9800482 -0.13843332 0 0
-0.93056333 0.10228536 2.3397372 -0.22253245 -0.95896065 -0.17570935 0 0
-0.85659623 0.0578303 2.4226518 -0.24618742 -0.8699705 -0.42725062 0 0
-0.83720267 0.0796342 2.358231 -0.26059893 -0.9208567 -0.29001918 0 0
-0.79939455 0.05783029 2.3850622 -0.27275142 -0.89685106 -0.3482311 0 0
-0.8827413 0.07958638 2.3940928 -0.25445238 -0.89252067 -0.37237188 0 0
-0.7875484 0.07977764 2.301693 -0.23576616 -0.95398545 -0.18527299 0 0
-0.7392931 0.057830293 2.33046 -0.28560475 -0.9174613 -0.2769382 0 0
-0.5702529 0.05125044 2.8917046 0.06132307 -0.9637579 0.2596351 0 0
-0.46966225 0.044059813 2.8398361 0.011822028 -0.9719902 0.23472363 0 0
-0.43009102 0.10034763 3.0282712 -0.01680887 -0.9353866 0.3532272 0 0
-0.70597047 0.01841279 2.7967854 0.06733378 -0.98444635 0.16226992 0 0
-0.5927554 0.026984094 2.7833543 0.0636776 -0.9829376 0.17256561 0 0
-0.72053164 0.009439747 2.7297592 0.057277806 -0.9933369 0.10000593 0 0
-0.62820417 0.008301207 2.6623087 0.03137805 -0.99513745 0.093364865 0 0
-0.51502997 0.011218473 2.6741781 -0.008897665 -0.99014586 0.13975763 0 0
-0.71445656 0.098710015 2.9660292 -0.31859156 -0.591468 0.7407193 0 0
-0.60178727 0.13940953 3.0595407 -0.34528524 -0.68804824 0.63825375 0 0
-0.60792917 0.15871474 3.0739007 -0.48301867 -0.5575381 0.67516243 0 0
-0.711593 0.08159615 2.9509153 -0.20325539 -0.7389723 0.6423451 0 0
-0.5952759 0.1220218 3.0415547 -0.23461756 -0.7765349 0.58476347 0 0
-0.5095071 0.19522567 3.1814451 -0.38519487 -0.73484415 0.5582375 0 0
-0.5193929 0.21473551 3.1986303 -0.4731876 -0.67128944 0.5704946 0 0
-0.5283894 0.2352257 3.2127638 -0.59598535 -0.5674407 0.56816596 0 0
-0.742039 0.016621955 0.21871358 -0.42082998 -0.7991325 -0.42928937 0 0
-0.6760285 0.0020289933 0.20037371 -0.15494502 -0.9813873 -0.11345043 0 0
-0.7212715 0.0020778184 0.2511099 -0.13278534 -0.98119885 -0.14006071 0 0
-0.70245755 0.016622894 0.17167073 -0.4974846 -0.7959727 -0.34487182 0 0
-0.6388887 0.0018064885 0.14139068 -0.16849099 -0.9830204 -0.07267585 0 0
-0.6394675 -0.00027218298 0.2592761 -0.022767173 -0.99969196 -0.009885181 0 0
-0.7001194 8.5515325e-08 0.3053456 -0.013696487 -0.9998001 -0.014566883 0 0
-0.673809 0.016629435 0.11908519 -0.5616467 -0.79126513 -0.24176967 0 0
-0.6167093 0.0016493961 0.07187748 -0.19085586 -0.9803964 -0.048960384 0 0
-0.64205563 0.016666781 -1.1920929e-07 -0.61448026 -0.77844894 -0.12818423 0 0
-0.65519494 0.016645309 0.061050892 -0.6108963 -0.77354014 -0.16864571 0 0
-0.60332656 0.0016245539 -1.1920929e-07 -0.18937571 -0.9813083 -0.03421889 0 0
-0.5080041 -0.0035609184 0.08477688 -0.0382883 -0.9992598 -0.0037158309 0 0
-0.5366296 -0.0026431328 0.19416517 -0.0316559 -0.99949753 -0.0016595656 0 0
-0.7532095 0.100000076 1.3182524 -0.008416251 -0.9999624 0.0021386992 0 0
-0.699759 0.09843567 1.1635858 -0.06811259 -0.9975384 0.01667289 0 0
-0.704129 0.09920311 1.325314 -0.06092752 -0.99814093 0.0016343431 0 0
-0.74742186 0.0992031 1.1409454 -0.018446509 -0.99962103 0.02043456 0 0
-0.6825607 0.09307822 1.0401821 -0.12604792 -0.98961693 0.06906674 0 0
-0.6491642 0.09043641 1.0870185 -0.19110169 -0.98031384 0.04964751 0 0
-0.65117323 0.09307821 1.1824073 -0.17549782 -0.9844067 0.012006553 0 0
-0.65138024 0.093624294 1.3309693 -0.16733599 -0.98589736 0.002291588 0 0
-0.7988615 0.09925093 1.118449 -0.011455914 -0.9997655 0.018374728 0 0
-0.80355084 0.100000076 1.3111758 -0.00036054564 -0.9999978 0.0020879144 0 0
-0.78220695 0.09381557 0.95148075 -0.07029007 -0.99541426 0.06488265 0 0
-0.7286099 0.09362429 0.99444926 -0.07889943 -0.9940837 0.07464928 0 0
-0.7944982 0.010290974 2.5074234 -0.08954336 -0.97323257 -0.21166126 0 0
-0.7559113 0.031543586 2.417153 -0.2198469 -0.9261527 -0.30644497 0 0
-0.709219 0.009709967 2.468916 -0.10838672 -0.9815006 -0.15782541 0 0
-0.8257816 0.031669717 2.4583626 -0.19084908 -0.90742123 -0.374384 0 0
-0.68360794 0.031088704 2.355443 -0.24787398 -0.93744856 -0.24443589 0 0
-0.59889805 0.0047662845 2.401846 -0.13731742 -0.9853563 -0.101079844 0 0
-0.79666233 0.07977766 0.8038987 -0.16982664 -0.9717966 0.16361657 0 0
-0.8383654 0.0796342 0.76335573 -0.1785188 -0.96088374 0.21173921 0 0
-0.877791 0.07958639 0.73422796 -0.16147807 -0.9519206 0.26033047 0 0
-0.8033061 0.057830293 0.70811397 -0.20044199 -0.9322586 0.30119243 0 0
-0.7524775 0.057830293 0.74636114 -0.22316486 -0.93832004 0.2641078 0 0
-0.97384155 0.0936243 0.73522663 -0.12016765 -0.9637492 0.2382173 0 0
-0.9236232 0.07958637 0.70988023 -0.14332859 -0.9445853 0.2953227 0 0
-0.97389317 0.07958638 0.6871129 -0.13697477 -0.93671834 0.3221748 0 0
-0.91043043 0.057830293 0.65533376 -0.14864545 -0.9170283 0.37008598 0 0
-0.8526811 0.057830293 0.6802167 -0.16934365 -0.92554295 0.33866367 0 0
-0.59446734 0.07925362 1.1879508 -0.29488292 -0.9553119 0.020577995 0 0
-0.5897133 0.07920396 1.3340515 -0.28950402 -0.9571636 0.005041996 0 0
-0.6089957 0.079096645 1.0681406 -0.2860822 -0.95574903 0.06856227 0 0
-0.5318732 0.05599471 1.1846701 -0.39183548 -0.91965157 0.026569875 0 0
-0.52427506 0.054771 1.3334483 -0.40498912 -0.91429126 0.0074465866 0 0
-0.73027825 0.0796342 2.2273252 -0.20786123 -0.96619433 -0.15251987 0 0
-0.6745208 0.057830293 2.2542899 -0.29959822 -0.92552507 -0.23161232 0 0
-0.7730514 0.09381558 2.1342092 -0.08763477 -0.9947038 -0.053708185 0 0
-0.67589736 0.07958638 2.149384 -0.21163362 -0.9678691 -0.13579684 0 0
-0.6153819 0.057830293 2.1698565 -0.31726298 -0.9281339 -0.19470954 0 0
-0.60541683 0.07909665 1.9754868 -0.28644052 -0.95656484 -0.054180473 0 0
-0.6785985 0.09307822 2.009981 -0.12923355 -0.99017394 -0.05342527 0 0
-0.6470454 0.090436414 1.9545808 -0.18897495 -0.98132175 -0.036001068 0 0
-0.5724472 0.057753813 2.0866902 -0.3423607 -0.93042207 -0.13078213 0 0
-0.6333842 0.0794735 2.0732834 -0.24393916 -0.9640767 -0.10511806 0 0
-0.72168124 0.0936243 2.068399 -0.09038824 -0.9940826 -0.0602478 0 0
-0.6887891 0.07958639 0.91069686 -0.17763032 -0.9733102 0.1453094 0 0
-0.7435789 0.0796342 0.85320354 -0.1554798 -0.97568214 0.1545008 0 0
-0.69181687 0.057830296 0.80141294 -0.23671149 -0.94208425 0.2375816 0 0
-0.6312029 0.057830296 0.8710221 -0.26377946 -0.9439826 0.19828583 0 0
-0.64191043 0.07947351 0.97908926 -0.22852679 -0.9662228 0.11911761 0 0
-0.58281684 0.057753813 0.95317876 -0.31089425 -0.9409941 0.13369708 0 0
-0.54979306 0.05721843 1.0555246 -0.3608749 -0.9300003 0.06977782 0 0
-0.53061944 0.006421221 2.2720551 -0.21324879 -0.9696947 -0.119236305 0 0
-0.5489526 0.031210825 2.174861 -0.33119345 -0.92512554 -0.18561685 0 0
-0.47490305 0.00661982 2.1703389 -0.25342757 -0.960251 -0.117015205 0 0
-0.61113083 0.031161169 2.2670195 -0.2979005 -0.931463 -0.2088826 0 0
-0.43916863 0.006313896 2.0871212 -0.2752779 -0.9585665 -0.07329629 0 0
-0.4830639 0.029451732 1.9864032 -0.38309154 -0.9225666 -0.04595544 0 0
-0.41862378 0.004172386 1.9865117 -0.28904134 -0.9571388 -0.018455982 0 0
-0.5076084 0.030990941 2.0907187 -0.35549393 -0.9268681 -0.120580375 0 0
-0.54527694 0.057218436 1.9813532 -0.3694655 -0.9274873 -0.057118963 0 0
-0.25201973 -0.0218739 1.4908317 -0.013484038 -0.9999091 0.00035364204 0 0
-0.13374245 -0.021950385 1.6510856 -0.002352575 -0.99999684 0.00093991397 0 0
-0.24909246 -0.021415005 1.6559954 -0.019274492 -0.9998009 0.005159846 0 0
-0.13919091 -0.021950383 1.3216044 -0.0023379219 -0.999997 -0.00081038714 0 0
-0.1360313 -0.022007747 1.490221 -0.000738839 -0.9999998 1.8528002e-05 0 0
2.9802322e-08 -0.022026867 1.3216078 1.4544227e-09 -1 -9.367738e-05 0 0
1.1920929e-07 -0.022026865 1.4899274 6.9874e-09 -1 -2.7566842e-09 0 0
2.9802322e-08 -0.022026867 1.6487333 1.6396858e-09 -1 0.000102048885 0 0
-0.2570175 -0.021415006 1.3215806 -0.019917866 -0.9997926 -0.0042590667 0 0
-0.14227712 -0.02179742 1.149508 -0.0067676147 -0.99997574 -0.001662592 0 0
-0.26266527 -0.020191288 1.1497654 -0.036609195 -0.99929893 -0.007846438 0 0
-0.14425328 -0.021644453 0.9992622 -0.011870077 -0.99992716 -0.0021878646 0 0
2.9802322e-08 -0.022026863 0.99791574 2.4641311e-09 -0.99999994 -0.00038083497 0 0
5.9604645e-08 -0.022026863 1.1493477 1.0820178e-08 -1 -0.00024362364 0 0
5.9604645e-08 -0.022026872 2.048767 6.0400382e-09 -1 9.558703e-05 0 0
-0.13577208 -0.021644454 1.9378936 -0.011326039 -0.99993473 0.001530221 0 0
0 -0.022026872 1.9306779 -3.705478e-09 -1 0.00028184845 0 0
0 -0.022026872 2.1574118 -1.0375504e-09 -1 -3.927049e-05 0 0
-0.14154917 -0.021577535 2.0492365 -0.013748239 -0.9999055 -2.8511533e-05 0 0
-0.14771974 -0.021567978 2.151092 -0.013866618 -0.99990356 -0.00077275414 0 0
-0.2663402 -0.01843219 2.0556493 -0.055460334 -0.99845606 -0.0031347685 0 0
-0.25511628 -0.018967565 1.9548223 -0.048562407 -0.99880415 0.0056609153 0 0
-0.5935196 0.07925362 1.8326418 -0.29242307 -0.95619345 -0.013519535 0 0
-0.6513882 0.0936243 1.665096 -0.16675013 -0.9859978 -0.0016520484 0 0
-0.6506728 0.09307823 1.8389299 -0.17460975 -0.9846036 -0.008208277 0 0
-0.5895165 0.07920396 1.6616304 -0.28868532 -0.9574176 -0.003524691 0 0
-0.5304876 0.05599472 1.8326327 -0.39008704 -0.9206203 -0.01704412 0 0
-0.8413582 0.09952721 1.962295 -0.021686874 -0.99972606 -0.008808563 0 0
-0.84715414 0.100000076 1.703618 -0.004904997 -0.99998724 -0.0011998572 0 0
-0.7945285 0.099250935 1.9311147 -0.014738361 -0.99978375 -0.0146718845 0 0
-0.80270433 0.100000076 1.69438 -0.0004885839 -0.9999984 -0.0017250879 0 0
-0.744997 0.0992031 1.894194 -0.02077329 -0.99965245 -0.01623125 0 0
-0.7529572 0.100000076 1.6825149 -0.008554254 -0.9999619 -0.0017463124 0 0
-0.6987766 0.09843566 1.8622954 -0.06918461 -0.99752665 -0.012417137 0 0
-0.70416445 0.09920311 1.6722426 -0.060941197 -0.9981406 -0.0012472458 0 0
-0.8762425 0.100200735 1.9687706 -0.05654007 -0.9984001 -0.00073936145 0 0
-0.8984172 0.10228536 1.966279 -0.22721648 -0.97384375 -0.0010663762 0 0
-0.87921 0.10028574 1.7068005 -0.053629942 -0.99856097 -0.00011769021 0 0
-0.39917555 -0.005617381 1.6629357 -0.30552262 -0.9521361 0.009644137 0 0
-0.3373295 -0.0150043145 1.830188 -0.13046463 -0.9913381 0.015099239 0 0
-0.4059515 -0.0007224964 1.8374578 -0.2992909 -0.95412916 0.007906569 0 0
-0.3336738 -0.01852251 1.6605328 -0.114749886 -0.9933327 0.011074585 0 0
-0.24961412 -0.020191284 1.8170128 -0.034103476 -0.99938023 0.008730049 0 0
-0.34658158 -0.01148612 1.9740105 -0.14486432 -0.9894455 0.0034569749 0 0
-0.40124917 -0.0056173843 1.3240047 -0.3134873 -0.94956964 -0.0065864045 0 0
-0.4698192 0.025933526 1.171476 -0.41479206 -0.9097745 0.016061878 0 0
-0.4094491 -0.00072250573 1.1571286 -0.30912098 -0.9510153 -0.0037594272 0 0
-0.4613343 0.022415336 1.3289628 -0.4382676 -0.8988369 0.0037248684 0 0
-0.4860675 0.029451722 1.0351962 -0.36672607 -0.92891836 0.05121371 0 0
-0.4217734 0.004172373 1.0146216 -0.28527713 -0.9582671 0.018470604 0 0
-0.97381413 0.016666735 0.31891102 -0.087878555 -0.83574957 -0.54203343 0 0
-0.9053045 0.0020807206 0.35176253 -0.038846932 -0.98410106 -0.17330919 0 0
-0.97381413 0.0020834014 0.36258388 -0.026321845 -0.98531157 -0.16872531 0 0
-0.9105638 0.016645277 0.30861425 -0.12436976 -0.8275252 -0.54747987 0 0
-0.8386847 0.0020787413 0.3319106 -0.06711747 -0.9843611 -0.16287595 0 0
-0.82903653 7.401863e-08 0.38050497 -0.0070359334 -0.99979824 -0.01881719 0 0
-0.9003853 7.065913e-08 0.3991447 -0.004194257 -0.99977475 -0.020804588 0 0
-0.97381413 6.788959e-08 0.4091097 -0.002775514 -0.99978703 -0.02045231 0 0
-0.82226413 7.066073e-08 0.47511333 -0.00073074934 -0.9998941 0.014537402 0 0
-0.8976325 7.018809e-08 0.43993652 2.9650057e-08 -1 -2.2576826e-08 0 0
-0.8239033 7.287747e-08 0.42860293 3.9406583e-08 -1 -3.8393175e-08 0 0
-0.8964977 6.917168e-08 0.475492 -0.0006583158 -0.99982005 0.018962499 0 0
-0.97381413 6.788959e-08 0.44639838 2.458007e-08 -1 -4.169636e-09 0 0
-0.6789015 0.10000012 -1.1920929e-07 -0.92280376 -0.3164679 -0.21973035 0 0
-0.6754749 0.05201636 0.0547179 -0.87101376 -0.42161247 -0.252147 0 0
-0.69120055 0.09987132 0.050860047 -0.9078504 -0.32015672 -0.2707533 0 0
-0.6626869 0.05208345 -1.1920929e-07 -0.88695437 -0.41516128 -0.2023687 0 0
-0.69339615 0.051966783 0.10727537 -0.8200824 -0.44133306 -0.3642664 0 0
-0.7085251 0.09977612 0.099825144 -0.85806996 -0.32979882 -0.39363548 0 0
5.9604645e-08 -0.022026865 0.8859427 7.2258793e-10 -1 -3.9924227e-05 0 0
-0.14081725 -0.021567974 0.7962326 -0.014767357 -0.9998894 -0.001793484 0 0
0 -0.02202687 0.78831303 3.3349806e-10 -0.99999964 -0.00089886173 0 0
-0.14408237 -0.021577533 0.89015335 -0.014325693 -0.9998972 -0.0006386605 0 0
-0.2688622 -0.018432189 0.8978274 -0.05645646 -0.99840343 -0.0017981263 0 0
-0.26580843 -0.018355705 0.808679 -0.052577365 -0.9986121 -0.0031051594 0 0
-0.36692744 -0.010140007 0.812092 -0.11834438 -0.9929167 0.010538167 0 0
-0.4394008 0.006115293 0.912746 -0.24227393 -0.9690501 0.047384325 0 0
-0.47643995 0.0047662966 0.80350137 -0.1626961 -0.98284435 0.08687351 0 0
-0.36222994 -0.009996562 0.90375483 -0.14692758 -0.9891417 0.0033301432 0 0
-0.2672191 -0.018967569 1.0017711 -0.052493677 -0.9985862 -0.008377924 0 0
-0.35481417 -0.011486126 1.0048376 -0.15405357 -0.98804253 -0.0062809447 0 0
-0.4241503 -0.004845816 0.49979597 -0.039532904 -0.9992158 -0.0022670913 0 0
-0.5751923 0.00076261396 0.61307245 -0.043554153 -0.997902 0.047904212 0 0
-0.57839787 -0.00051998085 0.4898135 -0.017833319 -0.99981785 0.0067992234 0 0
-0.4620455 -0.0028971052 0.66156524 -0.06694452 -0.99743086 0.025498584 0 0
-0.59209424 0.009709966 0.7107594 -0.13702816 -0.9800331 0.1440782 0 0
-0.68768126 0.010290959 0.6420574 -0.12641653 -0.9738762 0.18863769 0 0
-0.67531663 0.0012864375 0.56806475 -0.03277072 -0.9973619 0.06477116 0 0
-0.67517066 8.246654e-08 0.479609 -0.004074011 -0.99996024 0.007939194 0 0
-0.71448606 0.031669714 0.6977037 -0.218973 -0.9340712 0.2820675 0 0
-0.63673854 0.031543568 0.764382 -0.23586465 -0.94230324 0.23755561 0 0
-0.561318 0.031088706 0.84554917 -0.25161594 -0.950305 0.18332991 0 0
-0.51354766 0.030941285 0.9318116 -0.30784097 -0.94583696 0.10308429 0 0
-0.3393815 -0.018522514 1.3218431 -0.122205846 -0.9924582 -0.0096250735 0 0
-0.34667915 -0.01500432 1.1507721 -0.14505035 -0.9893375 -0.013105045 0 0
-0.5239293 0.054771 1.6611756 -0.40259972 -0.9153684 -0.0037712723 0 0
-0.4684596 0.025933532 1.8362867 -0.4129873 -0.9106979 -0.00843425 0 0
-0.46082407 0.022415338 1.6624484 -0.43418062 -0.90082484 0.0013368565 0 0
-0.28071165 -0.018355707 2.145876 -0.05415413 -0.9984966 -0.008481683 0 0
-0.36268404 -0.009946907 2.0718603 -0.14879696 -0.98858976 -0.023449142 0 0
-0.38816065 -0.009727026 2.1560183 -0.14023142 -0.9891329 -0.044175193 0 0
-0.29438272 -0.018355707 2.2542276 -0.047274537 -0.9988619 -0.006332993 0 0
-0.30172598 -0.01835571 2.3786454 -0.040910456 -0.9991407 0.006663867 0 0
-0.42221037 -0.009776678 2.2623081 -0.116103314 -0.99252975 -0.037480183 0 0
-0.4459878 -0.010140015 2.3876166 -0.081949554 -0.99654704 -0.013356777 0 0
-0.7538803 7.688411e-08 0.40933335 7.9529094e-08 -1 -4.318194e-08 0 0
-0.76175046 7.863905e-08 0.3473708 -0.010129142 -0.9998031 -0.017062347 0 0
-0.6840215 8.527654e-08 0.3862915 -0.0027438316 -0.99999624 0.00038949514 0 0
-0.7516703 7.348606e-08 0.47536325 -0.0010657016 -0.9999423 0.010689832 0 0
-0.47268578 -0.003660343 0.33742815 -0.028229311 -0.99959385 0.0039129728 0 0
-0.6032394 -0.0004465586 0.36345553 -0.014767473 -0.9998864 0.0030201206 0 0
-0.22119129 -0.012260035 0.42333847 -0.029823493 -0.999429 -0.015889866 0 0
2.9802322e-08 -0.014837505 0.29682857 -6.6709294e-10 -0.99998504 -0.005489036 0 0
2.9802322e-08 -0.01590826 0.39879507 3.8542924e-09 -0.9998059 -0.019701393 0 0
-0.2580753 -0.010714327 0.30949068 -0.025095526 -0.999685 -0.0005278759 0 0
-0.28285977 -0.01044435 0.19179147 -0.023604726 -0.99971896 0.002200394 0 0
2.9802322e-08 -0.014684542 0.18974406 -1.7789347e-09 -0.99999994 -0.00039958558 0 0
-0.7613238 0.010290955 0.59744763 -0.11150573 -0.96841615 0.2230172 0 0
-0.8264008 0.010290956 0.56993824 -0.088381216 -0.9617102 0.2594269 0 0
-0.7535531 0.0012864303 0.5384179 -0.028320134 -0.99619424 0.08243162 0 0
-0.8226434 0.001286429 0.52116346 -0.022751942 -0.9943973 0.10322987 0 0
-0.8976035 0.010290958 0.5506824 -0.072803944 -0.9502851 0.30275083 0 0
-0.97384155 0.010290956 0.5350292 -0.057771888 -0.9398198 0.33675107 0 0
-0.8962252 0.0012864288 0.5104844 -0.01901937 -0.9914704 0.12893668 0 0
-0.9738176 0.0012864288 0.502812 -0.012995301 -0.9884399 0.15105514 0 0
-0.8356495 0.031669706 0.6238566 -0.15339811 -0.92115444 0.357692 0 0
-0.97392404 0.057830293 0.63131064 -0.13915353 -0.90604293 0.39965323 0 0
-0.90185976 0.031669702 0.60018736 -0.12881514 -0.9095155 0.39520657 0 0
-0.97389317 0.031669702 0.5786715 -0.112941 -0.89665896 0.42807353 0 0
-0.2391615 -0.017437913 0.6241201 -0.046039756 -0.9986537 -0.023899684 0 0
-0.17419648 -0.016186997 0.5101414 -0.029471625 -0.9990618 -0.03173382 0 0
-0.14102319 -0.01983012 0.5907597 -0.020652313 -0.9995038 -0.023783281 0 0
-0.30600503 -0.012434246 0.5824667 -0.05595987 -0.9982117 -0.021025265 0 0
2.9802322e-08 -0.018355707 0.48468763 -6.5226757e-09 -0.99955654 -0.02978109 0 0
0 -0.020803155 0.5724643 -9.487682e-09 -0.99980617 -0.019690365 0 0
-0.8492156 0.016629415 0.29073006 -0.2151229 -0.8249445 -0.5226746 0 0
-0.7761692 0.0020779292 0.29676247 -0.10284128 -0.98262733 -0.15449077 0 0
-0.7919472 0.016622884 0.25977862 -0.32591835 -0.8106814 -0.48638776 0 0
-0.357706 -0.010974403 0.69590515 -0.08228558 -0.99660397 -0.0031071685 0 0
-0.25596803 -0.018185746 0.7063499 -0.04881488 -0.99873275 -0.012251808 0 0
-0.2784809 0.00089273526 2.6738725 -0.032159306 -0.98629725 0.16181387 0 0
-0.15117785 -0.019145824 2.5092235 -0.011388281 -0.9980173 0.061900932 0 0
-0.14317167 -0.0021907932 2.6698608 -0.01042613 -0.98751974 0.1571504 0 0
-0.29733676 -0.015949653 2.5140257 -0.035776474 -0.9973566 0.06324549 0 0
-0.15253356 -0.021567972 2.3773694 -0.012439202 -0.9998822 0.009000411 0 0
2.9802322e-08 -0.022026867 2.37858 -3.409294e-09 -0.9999566 0.00932576 0 0
5.9604645e-08 -0.019614749 2.5076222 -6.194452e-08 -0.9981037 0.06155519 0 0
2.9802322e-08 -0.0027299267 2.6680093 1.4249126e-08 -0.987901 0.15508638 0 0
-0.15134227 -0.021567976 2.259209 -0.013046622 -0.99991477 -0.00050167146 0 0
5.9604645e-08 -0.02202687 2.2648556 2.0750952e-09 -1 -6.5262243e-06 0 0
-0.45607924 0.2681535 3.3271403 -0.45332655 -0.7181786 0.5279343 0 0
-0.46686208 0.28878906 3.345202 -0.5061368 -0.68246275 0.5273237 0 0
-0.413756 0.34196782 3.4638677 -0.37503597 -0.7305647 0.57063407 0 0
-0.47662923 0.30858624 3.3599324 -0.59947515 -0.6095796 0.5186928 0 0
-0.33075482 0.36143968 3.5267143 -0.1964978 -0.7845646 0.5880875 0 0
-0.23415169 0.3842564 3.5795517 -0.08115132 -0.8323268 0.5483126 0 0
-0.3401552 0.38185206 3.5509753 -0.22821963 -0.78218144 0.5797482 0 0
-0.42327154 0.3611364 3.4816394 -0.4342644 -0.6959958 0.57184285 0 0
-0.7198573 0.14270733 2.9882493 -0.46049875 -0.4045987 0.7900891 0 0
-0.6133083 0.18096183 3.0850682 -0.5866837 -0.43811423 0.68107134 0 0
-0.6182201 0.2049571 3.0945113 -0.64922786 -0.3918498 0.6518872 0 0
-0.71720254 0.11958453 2.9779687 -0.40464404 -0.45723066 0.7919617 0 0
-0.5361064 0.25763652 3.2237282 -0.695289 -0.4639101 0.54896325 0 0
-0.54306906 0.28121877 3.2329202 -0.7471715 -0.42389607 0.5119051 0 0
5.9604645e-08 0.42124233 3.656714 -9.42136e-07 -0.8899014 0.45615315 0 0
-0.123951435 0.40373868 3.6207314 -0.025369976 -0.8743563 0.48462084 0 0
1.1920929e-07 0.40389794 3.622459 -5.6211894e-07 -0.8858874 0.4639006 0 0
-0.12909952 0.42124233 3.652968 -0.03453302 -0.87739205 0.4785297 0 0
-0.2426716 0.4035165 3.6080804 -0.10331227 -0.841646 0.5300553 0 0
-0.4852648 0.3292479 3.3715787 -0.68550605 -0.5293628 0.49985647 0 0
-0.4322073 0.37997192 3.496385 -0.49939072 -0.65355736 0.56874573 0 0
-0.49325892 0.35057893 3.3815384 -0.70856297 -0.5040276 0.49385694 0 0
-0.34951848 0.40055862 3.5722003 -0.2686861 -0.77448595 0.57269496 0 0
-0.25128388 0.4212423 3.634956 -0.12011355 -0.84016716 0.52885926 0 0
-0.35883528 0.4184444 3.5917716 -0.2790411 -0.77130234 0.5720391 0 0
-0.440826 0.39885893 3.5095277 -0.48824444 -0.64916277 0.583271 0 0
-0.7701763 0.09973131 0.1855331 -0.646606 -0.3564929 -0.67439866 0 0
-0.72065836 0.051946353 0.15573955 -0.7284176 -0.46112496 -0.5067265 0 0
-0.75776637 0.051943433 0.19908172 -0.6131995 -0.47491312 -0.6312243 0 0
-0.73487866 0.09973692 0.14513075 -0.7650182 -0.34461063 -0.54405034 0 0
-0.97381413 0.05208341 0.28944957 -0.13758484 -0.5222578 -0.841616 0 0
-0.97381413 0.10000008 0.2691453 -0.14874545 -0.38565987 -0.910572 0 0
-0.91431975 0.052016333 0.2797495 -0.18735254 -0.51618 -0.8357375 0 0
-0.9170356 0.09987129 0.2599362 -0.20033476 -0.38343695 -0.9015776 0 0
-0.8569589 0.051966768 0.26355582 -0.31989327 -0.5077347 -0.7999211 0 0
-0.81325734 0.099736914 0.21963423 -0.5052524 -0.36550874 -0.78174376 0 0
-0.8039396 0.051946346 0.23604625 -0.47751567 -0.48990402 -0.7293647 0 0
-0.8627459 0.09977611 0.24489552 -0.33957043 -0.37588465 -0.862208 0 0
-0.92173576 0.11371183 2.1836545 -0.64171576 -0.7666174 -0.022329612 0 0
-0.9110695 0.10714162 1.9636437 -0.50862455 -0.8609835 -0.002925844 0 0
-0.91401696 0.10714162 2.1873903 -0.50265914 -0.8641978 -0.022275966 0 0
-0.9188267 0.11371183 1.9614449 -0.6461074 -0.76323885 -0.0034258591 0 0
-0.9112519 0.10714162 1.7054942 -0.53823406 -0.8427955 0.00029454828 0 0
-0.8995851 0.10228537 1.7063527 -0.24356233 -0.9698851 0.00063680817 0 0
-0.90364325 0.093624294 2.3709717 -0.21867421 -0.941053 -0.25807178 0 0
-0.94625473 0.099488765 2.373798 -0.12474638 -0.9755252 -0.1810777 0 0
-0.93852973 0.093624294 2.394393 -0.1937555 -0.93009555 -0.31205976 0 0
-0.97381413 0.099488765 2.39119 -0.12548068 -0.96889603 -0.21329585 0 0
-0.97381413 0.10228537 2.3737078 -0.14497952 -0.96529424 -0.21722807 0 0
-0.9514873 0.102285385 2.3583589 -0.18232347 -0.95347357 -0.24009635 0 0
-0.92912376 0.11371183 2.292417 -0.6743371 -0.72803944 -0.12340231 0 0
-0.92292297 0.107141614 2.2970757 -0.521932 -0.84425616 -0.12173119 0 0
-0.9369973 0.10714162 2.331437 -0.45867288 -0.8271535 -0.3247095 0 0
-0.9409436 0.11371183 2.3257692 -0.6045329 -0.7024627 -0.37561435 0 0
-0.9188267 0.11371183 1.1095243 -0.6848557 -0.728652 0.006236884 0 0
-0.9114547 0.10714162 1.3070683 -0.5486655 -0.83604187 0.00045537506 0 0
-0.9184111 0.113711834 1.3075753 -0.68665266 -0.7269854 0.0006074993 0 0
-0.92173576 0.113711834 0.9459436 -0.7006103 -0.7127279 0.034121126 0 0
-0.91185015 0.10714163 1.1079642 -0.54641205 -0.8374973 0.0056907614 0 0
-0.9151982 0.10714164 0.9430965 -0.5596415 -0.8280905 0.03267646 0 0
-0.9564097 0.11371183 0.8184501 -0.43484575 -0.72249776 0.53749996 0 0
-0.937301 0.10714163 0.82773983 -0.47533345 -0.81238323 0.33777446 0 0
-0.9409436 0.113711834 0.83314335 -0.6178345 -0.678855 0.39678267 0 0
-0.97381413 0.113711834 0.80781704 -0.35259283 -0.767059 0.5360026 0 0
-0.9545754 0.10714162 0.8110702 -0.34435555 -0.8294988 0.439717 0 0
-0.97381413 0.10714162 0.79809374 -0.28043976 -0.8663465 0.41327655 0 0
-0.92912376 0.11371183 0.8628312 -0.71667254 -0.68007106 0.15454398 0 0
-0.923792 0.10714163 0.8588163 -0.56466717 -0.81248057 0.14500502 0 0
-0.7773973 0.031669702 0.653262 -0.1915033 -0.92748636 0.32108513 0 0
-0.97381413 0.10714161 2.361073 -0.27835238 -0.86947864 -0.40807718 0 0
-0.97381413 0.11371183 2.3510954 -0.34865257 -0.77431005 -0.5280961 0 0
-0.9545374 0.107141614 2.3480024 -0.33699378 -0.83428437 -0.436354 0 0
-0.9564097 0.11371182 2.3404627 -0.42552918 -0.7323304 -0.5316176 0 0
-0.7422092 0.0030055942 2.6518006 0.02996 -0.99863285 0.04283749 0 0
-0.66724586 0.0018729094 2.554145 -0.014757378 -0.9998664 -0.007034894 0 0
-0.76676035 0.0016621384 2.5742693 -0.009279204 -0.99879616 -0.04816724 0 0
-0.55968606 -0.0009365027 2.5343065 -0.040906258 -0.99858105 0.034097616 0 0
-0.9147326 0.057830293 2.4514112 -0.2285174 -0.84612095 -0.48151752 0 0
-0.97381413 0.07958638 2.4418015 -0.21850282 -0.8480401 -0.48278832 0 0
-0.92813516 0.07958637 2.41995 -0.23825571 -0.86707026 -0.4375196 0 0
-0.97381413 0.093624294 2.4138494 -0.1876276 -0.91182244 -0.36520636 0 0
-0.9184111 0.11371182 1.7047651 -0.67632824 -0.73660046 -0.000109690416 0 0
-0.91150343 0.10714162 1.495205 -0.55121285 -0.8343647 9.8728844e-05 0 0
-0.91841114 0.11371182 1.4951773 -0.6891889 -0.7245817 -1.0585366e-08 0 0
-0.9002516 0.102285385 1.4952091 -0.25154063 -0.96784675 0.00016295275 0 0
-0.33467495 -0.019841837 1.4914317 -0.10990306 -0.9939404 0.0019491242 0 0
-0.39771754 -0.007452964 1.4920022 -0.31046605 -0.9505801 0.00289007 0 0
-0.458517 0.021096012 1.4925611 -0.44303304 -0.89650273 0.002185688 0 0
-0.5220276 0.054312106 1.4929626 -0.40760818 -0.9131562 0.0011484552 0 0
-0.13328439 -0.021797419 1.8032364 -0.006704942 -0.99997574 0.0019265667 0 0
5.9604645e-08 -0.022026865 1.7967474 -5.2015694e-09 -1 0.0002819335 0 0
-0.13566485 -0.021353401 0.69103396 -0.015684318 -0.99984 -0.008601992 0 0
5.9604645e-08 -0.021873908 0.67904836 3.2610041e-09 -0.99997574 -0.006968702 0 0
-0.6513255 0.0936243 1.4931428 -0.16439474 -0.98639464 6.0964674e-05 0 0
-0.5884427 0.079146616 1.4930949 -0.2880979 -0.95760095 0.00027790113 0 0
-0.8490665 0.10000008 1.4948766 -0.0045581167 -0.9999896 1.2753678e-05 0 0
-0.8048244 0.10000008 1.4943292 -6.006124e-10 -1 1.31013165e-08 0 0
-0.7547742 0.10000008 1.4937305 -0.008000784 -0.999968 -1.2655363e-06 0 0
-0.7051641 0.099203125 1.4933293 -0.05965614 -0.998219 -7.800896e-06 0 0
-0.88052744 0.100285746 1.4951439 -0.05507279 -0.9984824 7.853486e-05 0 0
-0.43437958 -0.008573728 2.5219848 -0.051122643 -0.9967868 0.061665125 0 0
-0.400686 0.0071859434 2.677113 -0.040865857 -0.9859679 0.1618564 0 0
-0.857597 0.00069477584 2.6527092 0.0066516222 -0.9999109 0.011575516 0 0
-0.97381413 0.0022017625 2.7006497 -1.052632e-05 -0.9976384 0.068685174 0 0
-0.97381413 0.00063808146 2.661078 0.0014408025 -0.9999114 0.013234472 0 0
-0.8476032 0.0023875684 2.7057533 0.0148374755 -0.9982512 0.057223614 0 0
-0.84046006 0.005900784 2.7504892 0.012102788 -0.99248624 0.121756956 0 0
-0.97381413 0.005491368 2.732891 -0.012943791 -0.9891498 0.14633968 0 0
-0.97381413 0.031669706 2.5177264 -0.15306632 -0.8801915 -0.44925922 0 0
-0.88244164 0.010290967 2.5376735 -0.090862826 -0.96238554 -0.25604334 0 0
-0.97381413 0.010290956 2.5647202 -0.07250023 -0.95990175 -0.27079958 0 0
-0.97381413 0.057830293 2.4761748 -0.20523612 -0.8320466 -0.51534116 0 0
-0.8985746 0.031669714 2.4900928 -0.178202 -0.88751435 -0.4249264 0 0
-0.868958 0.0013732788 2.5941854 -0.019819029 -0.9967544 -0.07802582 0 0
-0.97381413 0.0013661806 2.6142316 -0.015538907 -0.99614155 -0.08637509 0 0
-0.83706576 0.020014495 2.815627 -0.035534937 -0.95003784 0.31010544 0 0
-0.97381413 0.025374373 2.8035226 -0.069119066 -0.934718 0.3486044 0 0
-0.97381413 0.017862149 2.7819362 -0.057515852 -0.95081484 0.30437326 0 0
-0.7038461 0.03968558 2.8791714 -0.004593629 -0.9330401 0.35974336 0 0
-0.8372782 0.030071557 2.8419394 -0.059436217 -0.91756177 0.39312592 0 0
-0.7063813 0.052705072 2.90774 -0.056857087 -0.88986206 0.4526732 0 0
-0.8377594 0.041386507 2.8652577 -0.08378665 -0.87509996 0.47663406 0 0
-0.97381413 0.033818457 2.8244445 -0.0788117 -0.9092294 0.40876713 0 0
-0.84160393 0.11024967 2.9262395 -0.26117945 -0.45726526 0.850114 0 0
-0.97381413 0.09609655 2.8901596 -0.18409143 -0.5173887 0.8357149 0 0
-0.84051764 0.08835092 2.9147274 -0.23661804 -0.513024 0.8251171 0 0
-0.97381413 0.075513415 2.877219 -0.17545871 -0.5798563 0.7956011 0 0
-0.83947206 0.06895274 2.9015026 -0.18896182 -0.6532332 0.7331984 0 0
-0.97381413 0.057526458 2.8624291 -0.1429867 -0.7242869 0.67450976 0 0
-0.83851945 0.05377147 2.8851254 -0.12566683 -0.7954315 0.5928715 0 0
-0.97381413 0.043993417 2.844508 -0.10168738 -0.8499496 0.5169578 0 0
-0.7088453 0.066811755 2.9316897 -0.11603326 -0.83321756 0.5406338 0 0
-0.5806768 0.08846321 2.992267 -0.06857799 -0.8877479 0.45519307 0 0
-0.4674691 0.13065135 3.0957203 -0.07218072 -0.89719343 0.43569928 0 0
-0.48605165 0.15421145 3.1339898 -0.18464759 -0.84805894 0.4966904 0 0
-0.57146984 0.071264446 2.9555452 0.008656935 -0.9329892 0.35980055 0 0
-0.70192283 0.028403794 2.8447032 0.045484353 -0.96617806 0.2538332 0 0
-0.41095877 0.19142857 3.2292671 -0.11741144 -0.8804103 0.45944777 0 0
-0.4305116 0.21896146 3.272953 -0.24242692 -0.8356811 0.49281478 0 0
-0.37041968 0.16869313 3.1903825 -0.058484588 -0.90119886 0.42944166 0 0
-0.34592414 0.20789565 3.2712302 -0.045916602 -0.89229983 0.44910225 0 0
-0.36586833 0.23437563 3.3220792 -0.087475315 -0.8845916 0.45808947 0 0
-0.21496332 0.097766936 3.0467963 -0.03844942 -0.93653375 0.3484627 0 0
-0.29405534 0.15989134 3.1809535 -0.045537632 -0.9044907 0.42405525 0 0
-0.31855583 0.10140728 3.0425158 -0.043292973 -0.9354775 0.3507244 0 0
-0.19799581 0.15577509 3.1812377 -0.0285063 -0.89979964 0.43537116 0 0
-0.28645307 0.21020372 3.2800694 -0.02996731 -0.89234656 0.4503549 0 0
-0.44429502 0.2449151 3.3047595 -0.38191992 -0.7646053 0.5191495 0 0
-0.49891472 0.17539798 3.160964 -0.2987298 -0.7895128 0.5361252 0 0
-0.5886191 0.10519516 3.0195491 -0.148438 -0.8374281 0.52600414 0 0
-0.97381413 0.010968075 2.7591615 -0.036213815 -0.9704394 0.23861283 0 0
-0.83748114 0.011826864 2.786159 -0.0076861633 -0.976653 0.21468607 0 0
-0.19410115 0.20777626 3.2798533 -0.007865276 -0.88853073 0.45874962 0 0
-0.09926599 0.24706072 3.3540912 0.019347264 -0.8868818 0.461591 0 0
-0.19825268 0.24880064 3.3622456 0.0032614758 -0.89484763 0.4463598 0 0
-0.09690705 0.2040234 3.2727299 0.0024225186 -0.87932456 0.4762169 0 0
5.9604645e-08 0.24649285 3.348693 8.468315e-07 -0.8816199 0.4719602 0 0
2.9802322e-08 0.28305426 3.4176264 -3.3654024e-07 -0.87532455 0.4835359 0 0
-0.29299173 0.24913964 3.35921 -0.039762877 -0.89314455 0.44800884 0 0
5.9604645e-08 0.20216368 3.268053 -4.539482e-07 -0.87336403 0.48706812 0 0
-0.09896043 0.15193447 3.1791992 -0.015493252 -0.8944742 0.44685122 0 0
5.9604645e-08 0.15006995 3.1773992 -6.3787616e-07 -0.8925837 0.4508817 0 0
-0.10846093 0.094684444 3.0486674 -0.02124931 -0.93780077 0.34652323 0 0
0 0.09347938 3.0491662 -2.2853149e-07 -0.9384656 0.345373 0 0
-0.4957603 -0.0036710459 -1.1920929e-07 -0.039448842 -0.9992129 -0.0041690823 0 0
-0.28527313 -0.0105269505 0.090400815 -0.023262631 -0.99972945 6.841617e-05 0 0
-0.2800904 -0.010554478 -1.1920929e-07 -0.022938028 -0.99973655 -0.0009562319 0 0
2.9802322e-08 -0.014684541 0.091605544 -9.636157e-10 -1 7.4695825e-05 0 0
-0.357656 0.046300955 2.861598 -0.037888307 -0.9652813 0.25845042 0 0
-0.24632448 0.041874673 2.864743 -0.033624396 -0.9659393 0.25657535 0 0
-0.12612137 0.038984377 2.8646517 -0.014563075 -0.96809536 0.25015894 0 0
5.9604645e-08 0.038241647 2.8644223 -1.2509427e-07 -0.9690851 0.24672662 0 0
0.39277494 0.29439464 3.4154544 0.3003264 -0.7744882 0.55675143 0 0
0.30319053 0.28150487 3.422184 0.08303467 -0.8613773 0.5011332 0 0
0.3808155 0.26513672 3.3765426 0.19318019 -0.84216756 0.50342345 0 0
0.40361583 0.32033777 3.442379 0.3467019 -0.74174774 0.57411504 0 0
0.3126164 0.31126732 3.4667091 0.13896118 -0.80628705 0.57497036 0 0
0.21846509 0.33775097 3.514236 0.039422758 -0.8140783 0.57941574 0 0
0.21208286 0.3110488 3.4769979 0.015729647 -0.8349251 0.5501389 0 0
0.20552003 0.28181916 3.4286995 -0.0016862752 -0.87562436 0.48298976 0 0
0.11406773 0.3623616 3.5509114 -0.0021312765 -0.84524477 0.5343751 0 0
0.118890405 0.38452455 3.587047 0.011895994 -0.8606579 0.50904477 0 0
0.10989392 0.33790123 3.5130997 -0.016616937 -0.8369519 0.5470241 0 0
0.22590494 0.3622722 3.5481296 0.061103612 -0.82048166 0.5683981 0 0
0.23415178 0.3842564 3.5795517 0.081150606 -0.83232874 0.5483096 0 0
0.10656935 0.31171647 3.4729586 -0.027804501 -0.84951675 0.5268285 0 0
0.10319722 0.28217515 3.4223318 -0.029374018 -0.87644213 0.48061037 0 0
0.88488376 0.09981287 0.9285335 0.103777684 -0.99448895 0.014902039 0 0
0.91510797 0.10228537 0.8523462 0.2669608 -0.9602977 0.080995955 0 0
0.9045502 0.10228537 0.93845916 0.26188374 -0.96491504 0.01886696 0 0
0.84269655 0.09540951 0.89995825 0.10331806 -0.9931712 0.054189585 0 0
0.89956784 0.09953658 0.8397676 0.13398136 -0.9891767 0.059821613 0 0
0.87368083 0.09381558 0.8121293 0.15592338 -0.9815634 0.11055022 0 0
0.9208095 0.099488765 0.8049027 0.1234845 -0.9858552 0.11331833 0 0
0.9313681 0.10228536 0.81949186 0.22882314 -0.9572341 0.17703947 0 0
0.95158803 0.10228537 0.8007785 0.18171199 -0.9547719 0.23535414 0 0
0.90311086 0.093624294 0.7778677 0.14349662 -0.97461027 0.17188284 0 0
0.94622946 0.09948877 0.78406715 0.103522256 -0.98366815 0.1472421 0 0
0.9370247 0.0936243 0.75504625 0.12363528 -0.9700219 0.20921737 0 0
0.9738177 0.09948877 0.7667472 0.09764857 -0.9813087 0.1658256 0 0
0.97381425 0.10228537 0.7855748 0.14051421 -0.96730214 0.21114573 0 0
0.8802407 0.10028574 1.3052738 0.05489343 -0.99849206 0.00053387805 0 0
0.9004872 0.10228538 1.1054231 0.24920197 -0.9684467 0.0031001414 0 0
0.9001243 0.10228536 1.3062425 0.24977605 -0.96830374 0.00014733738 0 0
0.84663224 0.0995272 1.1017329 0.020386055 -0.9997373 0.010475618 0 0
0.8802674 0.10020073 1.1015235 0.06123828 -0.9981218 0.001652458 0 0
0.9128059 0.10228537 2.3036427 0.24443951 -0.96713465 -0.069999725 0 0
0.87871087 0.09981284 2.2002568 0.09745836 -0.9951787 -0.01100962 0 0
0.90142024 0.102285355 2.1921587 0.22915557 -0.9733086 -0.012572121 0 0
0.93056345 0.102285355 2.3397372 0.22253035 -0.95896125 -0.17570923 0 0
0.8952942 0.0995366 2.3142366 0.14375524 -0.9876247 -0.062705934 0 0
0.9195746 0.099488765 2.3528275 0.14262462 -0.98004836 -0.13843271 0 0
0.86942077 0.09381557 2.3320494 0.20169444 -0.9670117 -0.15558852 0 0
0.8336406 0.09540951 2.2198448 0.12070872 -0.99138117 -0.050921302 0 0
0.85659635 0.057830304 2.4226518 0.2461891 -0.86997 -0.42725065 0 0
0.8372028 0.0796342 2.358231 0.26059702 -0.9208574 -0.29001883 0 0
0.88274145 0.07958639 2.394093 0.25445357 -0.8925202 -0.37237224 0 0
0.7993946 0.057830293 2.3850622 0.27275056 -0.89685136 -0.3482309 0 0
0.7875484 0.07977764 2.301693 0.23576555 -0.95398563 -0.18527281 0 0
0.90364325 0.0936243 2.3709717 0.21867487 -0.94105285 -0.25807148 0 0
0.46966243 0.04405981 2.8398361 -0.011821938 -0.9719902 0.2347236 0 0
0.570253 0.05125044 2.8917046 -0.061324265 -0.96375793 0.25963464 0 0
0.43009102 0.10034764 3.0282712 0.016809303 -0.93538666 0.35322726 0 0
0.51503 0.011218473 2.6741781 0.00889774 -0.99014586 0.13975766 0 0
0.59275556 0.026984097 2.7833543 -0.0636778 -0.9829376 0.17256555 0 0
0.62820435 0.008301207 2.6623087 -0.03137801 -0.99513745 0.093364805 0 0
0.7205316 0.009439748 2.7297592 -0.05727814 -0.99333686 0.10000596 0 0
0.7059705 0.01841279 2.7967854 -0.06733388 -0.98444635 0.16226992 0 0
0.7144567 0.09871001 2.9660292 0.31858972 -0.59146994 0.74071854 0 0
0.6017873 0.13940953 3.059541 0.3452882 -0.688047 0.6382534 0 0
0.71159315 0.08159615 2.9509153 0.203255 -0.738973 0.6423444 0 0
0.6079292 0.15871476 3.0739007 0.4830199 -0.55753535 0.67516387 0 0
0.51939297 0.21473551 3.1986303 0.4731912 -0.67128736 0.57049394 0 0
0.5095073 0.19522567 3.1814451 0.38519633 -0.734843 0.5582379 0 0
0.5952759 0.1220218 3.0415547 0.23461747 -0.7765355 0.5847626 0 0
0.7088454 0.066811755 2.9316897 0.11603184 -0.83321846 0.5406327 0 0
0.7420391 0.016621955 0.21871352 0.42083094 -0.79913217 -0.4292891 0 0
0.67602885 0.0020289933 0.20037371 0.15494579 -0.9813872 -0.11345106 0 0
0.70245767 0.016622895 0.17167073 0.4974852 -0.79597217 -0.34487212 0 0
0.7212715 0.0020778184 0.2511099 0.13278536 -0.98119897 -0.14006019 0 0
0.6394675 -0.00027218295 0.2592761 0.022767141 -0.99969196 -0.009885137 0 0
0.63888884 0.0018064888 0.14139056 0.16849087 -0.9830205 -0.07267583 0 0
0.6738092 0.016629435 0.11908519 0.5616464 -0.7912653 -0.24176973 0 0
0.6167095 0.0016493959 0.0718776 0.19085592 -0.98039633 -0.048960485 0 0
0.655195 0.016645309 0.06105101 0.6108958 -0.7735405 -0.16864629 0 0
0.5080043 -0.0035609182 0.08477676 0.038288306 -0.9992598 -0.0037158139 0 0
0.6033267 0.0016245539 -1.1920929e-07 0.18937628 -0.9813081 -0.03421909 0 0
0.64205575 0.016666781 -1.1920929e-07 0.6144814 -0.77844816 -0.12818384 0 0
0.7532095 0.100000076 1.3182524 0.008416328 -0.99996233 0.0021387194 0 0
0.69975924 0.09843568 1.1635858 0.06811236 -0.9975383 0.016672857 0 0
0.747422 0.0992031 1.1409454 0.018446466 -0.99962103 0.02043452 0 0
0.7041291 0.0992031 1.325314 0.060927503 -0.99814093 0.0016343633 0 0
0.65117323 0.09307821 1.1824073 0.17549776 -0.9844067 0.012006602 0 0
0.6491643 0.09043641 1.0870185 0.19110176 -0.98031384 0.04964754 0 0
0.68256056 0.0930782 1.0401821 0.1260484 -0.98961693 0.06906685 0 0
0.7286099 0.093624294 0.99444926 0.07889946 -0.9940837 0.074649364 0 0
0.84840286 0.100000076 1.3063178 0.0048697144 -0.999987 0.001511907 0 0
0.7988616 0.09925093 1.118449 0.011455828 -0.9997655 0.018374737 0 0
0.8035512 0.100000076 1.3111758 0.0003605518 -0.9999978 0.002087945 0 0
0.782207 0.09381557 0.95148075 0.07029003 -0.99541426 0.064882666 0 0
0.7944983 0.010290975 2.5074239 0.08954283 -0.9732326 -0.21166085 0 0
0.75591135 0.031543586 2.417153 0.21984677 -0.92615277 -0.30644488 0 0
0.82578146 0.031669717 2.4583626 0.19084837 -0.9074218 -0.37438294 0 0
0.7092191 0.009709967 2.468916 0.108386725 -0.98150057 -0.1578257 0 0
0.6836078 0.031088704 2.355443 0.2478739 -0.93744844 -0.244436 0 0
0.739293 0.057830296 2.33046 0.28560454 -0.9174614 -0.27693814 0 0
0.79666245 0.07977765 0.8038987 0.16982661 -0.97179663 0.16361655 0 0
0.7524775 0.057830293 0.74636114 0.22316511 -0.93832 0.2641079 0 0
0.83836555 0.0796342 0.7633558 0.17851911 -0.96088374 0.21173923 0 0
0.8033062 0.057830293 0.70811397 0.20044164 -0.9322588 0.30119205 0 0
0.87779117 0.07958638 0.73422796 0.16147839 -0.9519207 0.26033017 0 0
0.85268116 0.05783029 0.68021667 0.16934323 -0.9255429 0.338664 0 0
0.9236232 0.07958638 0.70988023 0.14332856 -0.94458526 0.29532298 0 0
0.91043067 0.05783029 0.6553339 0.14864545 -0.91702837 0.37008607 0 0
0.9738933 0.07958638 0.6871129 0.13697477 -0.9367181 0.32217556 0 0
0.97384167 0.0936243 0.73522663 0.1201678 -0.96374905 0.23821734 0 0
0.6513803 0.093624294 1.3309693 0.16733599 -0.9858973 0.0022915583 0 0
0.5944674 0.07925362 1.1879508 0.2948827 -0.95531195 0.020578094 0 0
0.58971334 0.07920396 1.3340515 0.2895042 -0.9571636 0.005041766 0 0
0.5318732 0.055994716 1.1846701 0.39183527 -0.9196517 0.02656982 0 0
0.6089958 0.079096645 1.0681406 0.2860823 -0.95574903 0.068562396 0 0
0.7302784 0.0796342 2.2273252 0.20786124 -0.96619445 -0.1525196 0 0
0.67452085 0.057830293 2.2542899 0.29959825 -0.9255251 -0.23161198 0 0
0.6758975 0.07958638 2.149384 0.2116332 -0.96786916 -0.13579664 0 0
0.7730515 0.09381557 2.1342092 0.087634824 -0.9947038 -0.053708177 0 0
0.67859864 0.093078226 2.009981 0.12923335 -0.990174 -0.053425416 0 0
0.6054169 0.07909665 1.9754866 0.2864405 -0.9565649 -0.05418072 0 0
0.6470454 0.09043642 1.9545808 0.1889745 -0.9813219 -0.036001295 0 0
0.7216815 0.093624294 2.068399 0.090387955 -0.9940826 -0.060247727 0 0
0.63338435 0.0794735 2.0732834 0.24393873 -0.9640768 -0.105117954 0 0
0.61538196 0.057830296 2.1698568 0.31726268 -0.92813396 -0.19470942 0 0
0.5724473 0.057753813 2.0866902 0.34236062 -0.9304221 -0.13078192 0 0
0.545277 0.057218436 1.9813532 0.36946616 -0.9274871 -0.05711895 0 0
0.68878925 0.07958638 0.9106969 0.17763034 -0.9733102 0.1453095 0 0
0.69181705 0.057830293 0.80141294 0.23671134 -0.94208425 0.23758158 0 0
0.74357903 0.07963419 0.85320354 0.15547994 -0.9756821 0.15450116 0 0
0.58281696 0.057753813 0.95317876 0.31089428 -0.9409941 0.13369699 0 0
0.64191055 0.0794735 0.97908926 0.22852702 -0.96622276 0.119117714 0 0
0.63120294 0.057830293 0.8710221 0.2637792 -0.9439827 0.19828577 0 0
0.5489526 0.031210825 2.174861 0.33119342 -0.92512566 -0.18561675 0 0
0.5306195 0.0064212214 2.2720551 0.21324894 -0.9696947 -0.11923633 0 0
0.47490317 0.00661982 2.1703389 0.25342762 -0.960251 -0.1170152 0 0
0.61113095 0.031161172 2.2670197 0.29790044 -0.9314631 -0.20888267 0 0
0.59889805 0.004766285 2.401846 0.13731739 -0.9853563 -0.10107994 0 0
0.48306412 0.029451733 1.9864032 0.3830917 -0.9225664 -0.045955278 0 0
0.43916875 0.006313896 2.0871212 0.27527806 -0.9585665 -0.0732962 0 0
0.41862392 0.0041723866 1.9865117 0.28904143 -0.9571388 -0.018456059 0 0
0.5076085 0.030990941 2.0907187 0.35549405 -0.9268681 -0.120580174 0 0
0.13374257 -0.021950385 1.6510856 0.0023525697 -0.99999684 0.0009399137 0 0
0.25201982 -0.021873903 1.4908317 0.013484041 -0.9999091 0.0003536303 0 0
0.24909264 -0.021415005 1.6559954 0.019274538 -0.9998009 0.005159857 0 0
0.13603139 -0.022007745 1.490221 0.0007388271 -0.9999998 1.8528986e-05 0 0
0.13919097 -0.021950383 1.3216044 0.0023379284 -0.999997 -0.000810403 0 0
0.25701755 -0.021415005 1.3215806 0.019917836 -0.99979264 -0.004259065 0 0
0.14227718 -0.021797417 1.149508 0.006767611 -0.99997574 -0.0016625923 0 0
0.26266533 -0.020191288 1.1497654 0.03660918 -0.99929893 -0.007846436 0 0
0.14425343 -0.021644453 0.9992622 0.011870075 -0.99992716 -0.0021878395 0 0
0.26721913 -0.018967569 1.0017711 0.052493695 -0.9985862 -0.008377902 0 0
0.13577223 -0.021644454 1.9378937 0.011326073 -0.9999348 0.0015302276 0 0
0.2551164 -0.018967563 1.9548222 0.048562393 -0.99880415 0.0056609293 0 0
0.14154923 -0.021577533 2.0492365 0.013748244 -0.9999055 -2.850139e-05 0 0
0.26634026 -0.01843219 2.0556493 0.05546027 -0.99845606 -0.0031347706 0 0
0.14771986 -0.021567978 2.151092 0.013866622 -0.99990356 -0.0007727639 0 0
0.59351957 0.07925363 1.8326418 0.29242298 -0.9561935 -0.013519455 0 0
0.6506729 0.09307823 1.8389299 0.17460908 -0.98460364 -0.008208169 0 0
0.5304878 0.05599472 1.8326327 0.39008707 -0.9206203 -0.017044077 0 0
0.5895165 0.07920396 1.6616304 0.28868574 -0.9574175 -0.003524488 0 0
0.6513883 0.093624294 1.665096 0.16674979 -0.98599786 -0.0016519638 0 0
0.8413584 0.09952721 1.9622949 0.021686852 -0.999726 -0.008808598 0 0
0.7945285 0.099250935 1.9311147 0.014738392 -0.99978375 -0.014671946 0 0
0.74499726 0.0992031 1.894194 0.020773273 -0.99965245 -0.016231162 0 0
0.80270445 0.100000076 1.69438 0.00048859295 -0.9999984 -0.001725094 0 0
0.84715414 0.100000076 1.703618 0.0049049566 -0.99998724 -0.0011998874 0 0
0.6987767 0.098435655 1.8622954 0.06918449 -0.99752665 -0.012417039 0 0
0.7041646 0.09920311 1.6722425 0.060940977 -0.99814063 -0.0012472522 0 0
0.75295746 0.100000076 1.6825148 0.0085542705 -0.9999619 -0.0017463451 0 0
0.87624264 0.100200735 1.9687705 0.05653982 -0.9984001 -0.00073931983 0 0
0.8984175 0.10228536 1.966279 0.22721934 -0.97384304 -0.001066501 0 0
0.87921023 0.10028574 1.7068005 0.053630214 -0.99856085 -0.00011774697 0 0
0.8995851 0.10228537 1.7063527 0.243558 -0.9698861 0.00063689944 0 0
0.39917564 -0.0056173815 1.6629357 0.30552292 -0.952136 0.00964416 0 0
0.33732957 -0.015004314 1.830188 0.1304646 -0.9913381 0.0150992265 0 0
0.33367383 -0.01852251 1.6605327 0.11474999 -0.9933327 0.011074574 0 0
0.4059515 -0.00072249677 1.8374579 0.2992908 -0.9541292 0.007906474 0 0
0.3465817 -0.011486118 1.9740105 0.14486435 -0.98944557 0.0034569043 0 0
0.24961424 -0.020191282 1.8170128 0.034103468 -0.9993802 0.008730048 0 0
0.40124923 -0.005617384 1.3240047 0.3134873 -0.94956964 -0.0065864925 0 0
0.4698192 0.025933525 1.171476 0.41479164 -0.90977466 0.016061915 0 0
0.4613344 0.022415334 1.3289628 0.43826726 -0.8988371 0.0037247452 0 0
0.4094491 -0.00072250614 1.1571286 0.30912095 -0.95101535 -0.0037593606 0 0
0.48606765 0.029451722 1.0351963 0.3667262 -0.9289183 0.051213875 0 0
0.5497931 0.057218432 1.0555246 0.36087498 -0.93000025 0.06977809 0 0
0.5242752 0.054770995 1.3334483 0.40498906 -0.9142913 0.0074463473 0 0
0.97381425 0.016666735 0.31891102 0.08787784 -0.8357495 -0.5420335 0 0
0.90530455 0.0020807208 0.35176247 0.038846973 -0.98410106 -0.17330952 0 0
0.9105642 0.016645277 0.30861437 0.12436958 -0.8275252 -0.5474799 0 0
0.97381425 0.0020834014 0.36258388 0.026321942 -0.98531157 -0.16872534 0 0
0.9003855 7.065913e-08 0.3991447 0.0041942545 -0.99977475 -0.020804582 0 0
0.8290366 7.401863e-08 0.3805049 0.0070359465 -0.9997982 -0.018817216 0 0
0.8386848 0.0020787413 0.3319106 0.06711738 -0.9843611 -0.16287605 0 0
0.8492156 0.016629413 0.29073006 0.21512268 -0.82494503 -0.52267385 0 0
0.8222641 7.0660725e-08 0.47511333 0.00073074014 -0.99989414 0.014537419 0 0
0.8976326 7.018808e-08 0.43993652 -2.964994e-08 -1 -2.2576893e-08 0 0
0.89649796 6.917168e-08 0.475492 0.0006583147 -0.99982005 0.01896249 0 0
0.82390344 7.287746e-08 0.42860293 -3.9406558e-08 -1 -3.8393207e-08 0 0
0.97381425 6.788959e-08 0.4091097 0.002775523 -0.99978703 -0.02045236 0 0
0.97381425 6.788959e-08 0.44639838 -2.4580059e-08 -1 -4.1695976e-09 0 0
0.97381425 6.788959e-08 0.47584575 -0.0001093973 -0.9997144 0.023901252 0 0
0.67890155 0.10000012 -1.1920929e-07 0.9228032 -0.31646916 -0.21973076 0 0
0.6754749 0.05201636 0.0547179 0.8710128 -0.4216136 -0.25214815 0 0
0.66268694 0.05208345 -1.1920929e-07 0.88695467 -0.41516122 -0.20236772 0 0
0.7085253 0.09977612 0.099825144 0.8580694 -0.32980087 -0.39363462 0 0
0.69120073 0.09987132 0.050860047 0.9078491 -0.32015973 -0.27075407 0 0
0.69339645 0.05196678 0.107275486 0.8200819 -0.44133326 -0.36426726 0 0
0.14081734 -0.021567974 0.7962326 0.014767346 -0.9998894 -0.0017934914 0 0
0.26580852 -0.018355705 0.808679 0.05257735 -0.9986121 -0.0031051806 0 0
0.14408249 -0.021577533 0.89015335 0.014325684 -0.9998972 -0.00063865393 0 0
0.26886237 -0.018432189 0.8978274 0.056456506 -0.99840343 -0.0017980966 0 0
0.4394009 0.006115293 0.912746 0.24227393 -0.9690501 0.04738433 0 0
0.36692762 -0.010140007 0.812092 0.11834445 -0.9929167 0.010538129 0 0
0.47643995 0.0047662957 0.8035014 0.16269608 -0.98284435 0.086873405 0 0
0.35481423 -0.011486125 1.0048376 0.15405343 -0.9880426 -0.0062809363 0 0
0.36223 -0.009996562 0.90375483 0.14692757 -0.9891417 0.0033302573 0 0
0.42415035 -0.004845816 0.4997959 0.039532866 -0.9992158 -0.0022670627 0 0
0.57519245 0.00076261396 0.6130725 0.043554183 -0.997902 0.047904264 0 0
0.46204537 -0.0028971052 0.6615653 0.06694445 -0.99743086 0.025498541 0 0
0.57839787 -0.00051998085 0.48981357 0.017833319 -0.99981785 0.0067992094 0 0
0.6753168 0.0012864375 0.56806475 0.032770753 -0.9973619 0.064771175 0 0
0.6876813 0.010290959 0.6420574 0.12641647 -0.9738761 0.18863751 0 0
0.5920944 0.009709965 0.71075934 0.13702802 -0.98003304 0.14407817 0 0
0.71448624 0.03166971 0.6977037 0.21897309 -0.9340712 0.2820674 0 0
0.6367388 0.03154357 0.764382 0.23586445 -0.9423032 0.23755558 0 0
0.56131804 0.031088708 0.84554917 0.25161585 -0.9503051 0.18332997 0 0
0.5135478 0.030941285 0.9318116 0.30784103 -0.94583696 0.10308418 0 0
0.4217735 0.0041723736 1.0146217 0.285277 -0.95826715 0.018470617 0 0
0.33938164 -0.018522516 1.3218431 0.12220602 -0.9924581 -0.009625075 0 0
0.3466792 -0.015004322 1.1507721 0.14505039 -0.9893375 -0.013105067 0 0
0.5239295 0.054771002 1.6611756 0.40259978 -0.9153683 -0.003771257 0 0
0.46845973 0.025933536 1.8362867 0.4129865 -0.91069806 -0.008434385 0 0
0.46082413 0.022415336 1.6624484 0.4341805 -0.900825 0.0013368201 0 0
0.3626842 -0.009946906 2.0718603 0.14879695 -0.9885898 -0.023449149 0 0
0.38816077 -0.009727026 2.1560183 0.1402312 -0.9891329 -0.044175137 0 0
0.28071177 -0.018355707 2.145876 0.054154135 -0.9984966 -0.008481698 0 0
0.29438287 -0.018355709 2.2542279 0.047274545 -0.9988619 -0.006332974 0 0
0.4222104 -0.009776677 2.2623081 0.11610314 -0.99252975 -0.0374801 0 0
0.44598782 -0.010140015 2.3876166 0.08194954 -0.99654704 -0.013356794 0 0
0.30172604 -0.018355709 2.3786454 0.040910453 -0.9991407 0.0066638817 0 0
0.7538804 7.688411e-08 0.40933335 -7.95292e-08 -1 -4.3182112e-08 0 0
0.7617507 7.863905e-08 0.34737086 0.010129159 -0.9998031 -0.017062414 0 0
0.75167036 7.3486056e-08 0.47536314 0.0010657046 -0.9999423 0.010689806 0 0
0.6751709 8.246654e-08 0.47960895 0.0040740054 -0.99996024 0.007939187 0 0
0.6840216 8.527654e-08 0.3862915 0.0027438316 -0.99999624 0.00038949147 0 0
0.7001194 8.551531e-08 0.3053456 0.0136964945 -0.9998001 -0.014566896 0 0
0.47268564 -0.003660343 0.33742815 0.028229322 -0.99959385 0.003912965 0 0
0.53662956 -0.0026431328 0.19416505 0.03165589 -0.99949753 -0.0016595172 0 0
0.60323954 -0.00044655864 0.36345553 0.014767438 -0.9998864 0.0030201084 0 0
0.22119111 -0.012260035 0.42333847 0.02982346 -0.999429 -0.01588984 0 0
0.25807548 -0.010714327 0.30949056 0.025095535 -0.999685 -0.0005278488 0 0
0.28285986 -0.01044435 0.19179153 0.023604728 -0.99971896 0.0022003918 0 0
0.76132405 0.010290956 0.5974476 0.11150567 -0.9684162 0.22301719 0 0
0.7535533 0.0012864302 0.5384178 0.028320238 -0.99619424 0.0824316 0 0
0.8226434 0.0012864289 0.52116346 0.022751907 -0.9943973 0.10322991 0 0
0.82640076 0.010290955 0.56993824 0.0883812 -0.9617103 0.25942662 0 0
0.89760363 0.010290957 0.5506824 0.072803974 -0.9502851 0.30275086 0 0
0.8962252 0.0012864289 0.5104844 0.01901933 -0.9914705 0.12893659 0 0
0.9738177 0.0012864288 0.502812 0.012995283 -0.9884399 0.15105525 0 0
0.97384167 0.010290956 0.5350292 0.05777172 -0.9398199 0.33675078 0 0
0.8356497 0.031669706 0.6238566 0.15339755 -0.9211545 0.35769215 0 0
0.9018599 0.031669702 0.60018736 0.12881525 -0.9095157 0.39520612 0 0
0.9738933 0.031669702 0.5786715 0.112940826 -0.8966594 0.4280729 0 0
0.9739243 0.057830293 0.63131064 0.1391538 -0.9060432 0.39965254 0 0
0.23916155 -0.01743791 0.62412006 0.04603981 -0.9986537 -0.023899738 0 0
0.17419654 -0.016186995 0.5101414 0.029471677 -0.9990618 -0.031733852 0 0
0.30600482 -0.012434246 0.58246666 0.055959906 -0.9982116 -0.021025328 0 0
0.14102334 -0.019830123 0.59075963 0.020652344 -0.9995038 -0.023783283 0 0
0.7761692 0.0020779294 0.29676253 0.102841094 -0.9826273 -0.15449046 0 0
0.79194725 0.016622884 0.25977862 0.3259183 -0.8106811 -0.48638827 0 0
0.35770607 -0.010974402 0.6959051 0.08228565 -0.99660397 -0.0031072914 0 0
0.25596815 -0.018185746 0.70634985 0.048814915 -0.99873275 -0.012251837 0 0
0.278481 0.00089273596 2.6738725 0.032159466 -0.98629713 0.1618139 0 0
0.15117794 -0.019145822 2.5092237 0.011388269 -0.9980173 0.06190102 0 0
0.29733688 -0.015949652 2.5140257 0.035776462 -0.9973566 0.06324546 0 0
0.14317179 -0.0021907934 2.6698608 0.010426342 -0.9875197 0.15715046 0 0
0.15253377 -0.021567972 2.3773694 0.012439226 -0.9998822 0.009000404 0 0
0.15134239 -0.021567974 2.2592087 0.013046635 -0.99991477 -0.0005016769 0 0
0.45607936 0.26815352 3.3271403 0.45332423 -0.7181798 0.52793455 0 0
0.52838945 0.23522568 3.2127638 0.5959873 -0.56743896 0.56816566 0 0
0.46686214 0.28878906 3.345202 0.50613374 -0.6824646 0.52732414 0 0
0.47662926 0.3085863 3.3599324 0.5994719 -0.60958105 0.5186949 0 0
0.41375613 0.3419678 3.4638677 0.37504306 -0.7305591 0.5706366 0 0
0.32154948 0.33817962 3.4991188 0.17447685 -0.78149015 0.599025 0 0
0.4232716 0.3611364 3.481639 0.43426344 -0.695997 0.57184225 0 0
0.33075482 0.36143968 3.5267138 0.1964987 -0.7845636 0.5880887 0 0
0.71985734 0.14270733 2.9882493 0.4605034 -0.40459567 0.79008794 0 0
0.6133084 0.18096185 3.0850682 0.58668286 -0.43811622 0.68107086 0 0
0.71720266 0.11958453 2.9779687 0.40464213 -0.4572325 0.7919617 0 0
0.6182202 0.2049571 3.0945113 0.64922667 -0.39185303 0.65188646 0 0
0.53610635 0.2576365 3.2237282 0.6952896 -0.46390918 0.54896325 0 0
0.123951554 0.40373874 3.6207318 0.025370222 -0.8743573 0.4846191 0 0
0.12909967 0.42124233 3.652968 0.034534775 -0.87739027 0.47853306 0 0
0.24267167 0.4035165 3.6080804 0.103312455 -0.84164596 0.53005546 0 0
0.25128394 0.4212423 3.634956 0.12011325 -0.8401672 0.528859 0 0
0.54306924 0.28121877 3.2329202 0.74716675 -0.42390215 0.5119071 0 0
0.4852649 0.3292479 3.3715787 0.6855018 -0.5293659 0.49985904 0 0
0.49325895 0.35057893 3.3815384 0.7085622 -0.5040285 0.49385715 0 0
0.43220735 0.37997192 3.496385 0.49938643 -0.6535616 0.5687446 0 0
0.3401553 0.38185206 3.5509753 0.22821765 -0.78218436 0.57974505 0 0
0.44082612 0.39885893 3.5095277 0.48824364 -0.64916307 0.58327144 0 0
0.34951854 0.4005586 3.5722003 0.26868594 -0.774486 0.57269496 0 0
0.7701764 0.09973131 0.1855331 0.6466064 -0.35649318 -0.6743981 0 0
0.7206584 0.051946353 0.15573943 0.7284183 -0.4611243 -0.506726 0 0
0.73487866 0.09973692 0.14513075 0.76501864 -0.3446095 -0.5440504 0 0
0.7577665 0.051943433 0.19908178 0.61320025 -0.47491354 -0.6312232 0 0
0.97381425 0.05208341 0.28944957 0.1375849 -0.52225775 -0.8416159 0 0
0.91431975 0.052016336 0.27974945 0.18735321 -0.51618 -0.8357374 0 0
0.8569591 0.051966768 0.26355577 0.31989217 -0.5077345 -0.79992175 0 0
0.9170356 0.09987129 0.2599362 0.20033488 -0.38343614 -0.9015779 0 0
0.97381425 0.10000008 0.2691453 0.1487456 -0.38565895 -0.91057235 0 0
0.81325734 0.099736914 0.21963423 0.5052526 -0.36551073 -0.78174275 0 0
0.8627459 0.09977611 0.24489552 0.3395697 -0.37588388 -0.86220866 0 0
0.80393946 0.05194635 0.23604631 0.47751546 -0.4899037 -0.72936505 0 0
0.9217359 0.11371183 2.1836545 0.6417124 -0.7666203 -0.022329634 0 0
0.9110695 0.10714162 1.9636437 0.508626 -0.8609826 -0.0029258435 0 0
0.9188268 0.11371183 1.9614449 0.64610445 -0.76324135 -0.0034254969 0 0
0.9140171 0.107141614 2.1873903 0.50265664 -0.8641992 -0.022275588 0 0
0.91125214 0.10714162 1.7054942 0.53823745 -0.8427932 0.00029463044 0 0
0.91841125 0.11371182 1.7047651 0.6763413 -0.7365885 -0.00010981769 0 0
0.94625485 0.09948877 2.373798 0.124745466 -0.9755253 -0.18107766 0 0
0.93852997 0.093624294 2.3943927 0.19375364 -0.93009627 -0.31205842 0 0
0.95148754 0.10228538 2.3583586 0.18232505 -0.95347285 -0.24009816 0 0
0.97381425 0.10228537 2.3737078 0.14497869 -0.9652947 -0.21722667 0 0
0.97381425 0.099488765 2.39119 0.12548277 -0.96889555 -0.21329676 0 0
0.97381425 0.093624294 2.4138494 0.18763043 -0.9118222 -0.36520556 0 0
0.9291239 0.11371183 2.292417 0.67433435 -0.7280423 -0.123400815 0 0
0.9409437 0.11371183 2.3257692 0.6045294 -0.7024661 -0.3756137 0 0
0.92292297 0.107141614 2.2970757 0.52193195 -0.8442563 -0.12173102 0 0
0.9369974 0.10714162 2.331437 0.45867106 -0.8271546 -0.32470948 0 0
0.9114548 0.10714163 1.3070683 0.5486673 -0.8360408 0.0004552533 0 0
0.9188268 0.11371183 1.1095243 0.68484485 -0.7286623 0.0062366263 0 0
0.91841125 0.113711834 1.3075753 0.6866554 -0.7269829 0.0006073685 0 0
0.9118502 0.10714163 1.1079642 0.5464027 -0.83750325 0.0056906734 0 0
0.9151983 0.10714163 0.9430965 0.55964565 -0.8280876 0.032676455 0 0
0.9217359 0.113711834 0.9459436 0.7006215 -0.7127169 0.034121584 0 0
0.9373013 0.10714162 0.8277399 0.47533694 -0.81238025 0.3377767 0 0
0.9564097 0.11371183 0.8184501 0.43484756 -0.72249687 0.53749967 0 0
0.9409437 0.113711834 0.83314335 0.6178433 -0.6788428 0.3967899 0 0
0.9545753 0.10714162 0.81107026 0.344357 -0.8294983 0.43971673 0 0
0.97381425 0.10714162 0.79809374 0.28044033 -0.86634564 0.41327766 0 0
0.97381425 0.113711834 0.80781704 0.35259223 -0.76705843 0.5360038 0 0
0.9291239 0.11371183 0.8628312 0.7166659 -0.68007827 0.15454292 0 0
0.923792 0.10714163 0.8588164 0.56466514 -0.8124819 0.14500515 0 0
0.7773973 0.031669706 0.653262 0.19150293 -0.9274865 0.321085 0 0
0.97381425 0.10714161 2.361073 0.27835593 -0.8694771 -0.40807793 0 0
0.95453763 0.107141614 2.3480024 0.33699527 -0.8342805 -0.43636045 0 0
0.9564097 0.11371182 2.3404627 0.4255317 -0.732325 -0.53162295 0 0
0.97381425 0.11371183 2.3510954 0.3486552 -0.77430755 -0.5280981 0 0
0.7422093 0.0030055942 2.6518006 -0.02996001 -0.99863285 0.042837445 0 0
0.6672461 0.0018729093 2.5541449 0.014757428 -0.9998664 -0.007035078 0 0
0.7667606 0.0016621384 2.5742693 0.0092794495 -0.99879616 -0.048167467 0 0
0.5596862 -0.0009365033 2.5343065 0.040906165 -0.99858105 0.034097604 0 0
0.9147327 0.057830293 2.4514115 0.22851802 -0.84612054 -0.48151803 0 0
0.9281353 0.07958638 2.41995 0.23825417 -0.86707187 -0.43751717 0 0
0.97381425 0.07958638 2.4418015 0.21850084 -0.8480409 -0.48278788 0 0
0.97381425 0.057830293 2.4761748 0.20523244 -0.83204687 -0.5153423 0 0
0.91150355 0.10714162 1.495205 0.55120957 -0.8343669 9.869226e-05 0 0
0.91841125 0.11371182 1.4951773 0.6891831 -0.7245872 0 0 0
0.90025175 0.10228538 1.4952091 0.25154015 -0.96784693 0.00016295753 0 0
0.33467507 -0.019841835 1.4914317 0.109903134 -0.9939405 0.0019491517 0 0
0.3977176 -0.007452963 1.4920022 0.310466 -0.9505801 0.0028901196 0 0
0.45851701 0.02109601 1.4925611 0.4430328 -0.8965028 0.0021857386 0 0
0.52202773 0.054312106 1.4929627 0.4076076 -0.91315657 0.0011484275 0 0
0.13328439 -0.02179742 1.8032362 0.006704945 -0.99997574 0.0019265733 0 0
0.13566494 -0.0213534 0.691034 0.015684301 -0.99984 -0.008601992 0 0
0.6513257 0.093624294 1.4931428 0.16439496 -0.9863946 6.0936094e-05 0 0
0.5884429 0.07914661 1.4930949 0.28809795 -0.957601 0.00027789638 0 0
0.8490666 0.10000009 1.4948766 0.0045580575 -0.9999896 1.277545e-05 0 0
0.80482435 0.10000008 1.4943291 8.5272546e-08 -1 1.7790045e-08 0 0
0.75477433 0.10000008 1.4937305 0.008000863 -0.99996805 -1.2497146e-06 0 0
0.7051642 0.09920312 1.4933293 0.05965623 -0.998219 -7.822427e-06 0 0
0.8805275 0.100285746 1.4951439 0.055072583 -0.99848235 7.858638e-05 0 0
0.43437964 -0.008573728 2.5219848 0.05112257 -0.9967868 0.06166515 0 0
0.40068614 0.0071859434 2.677113 0.04086593 -0.9859679 0.16185644 0 0
0.97381425 0.0022017625 2.7006497 1.063653e-05 -0.9976384 0.068685226 0 0
0.85759723 0.0006947757 2.6527092 -0.006651613 -0.9999109 0.011575501 0 0
0.97381425 0.00063808146 2.661078 -0.0014407265 -0.9999114 0.013234477 0 0
0.97381425 0.005491368 2.732891 0.012943949 -0.9891497 0.1463399 0 0
0.8476032 0.0023875681 2.7057533 -0.01483758 -0.99825114 0.057223592 0 0
0.84046006 0.0059007844 2.7504892 -0.012102956 -0.99248624 0.12175646 0 0
0.88244164 0.010290967 2.5376735 0.09086227 -0.9623855 -0.25604346 0 0
0.97381425 0.031669706 2.5177264 0.15306534 -0.8801915 -0.44925955 0 0
0.97381425 0.010290956 2.5647202 0.072500005 -0.95990175 -0.2707999 0 0
0.8985747 0.031669714 2.4900928 0.17820191 -0.8875142 -0.4249268 0 0
0.86895823 0.0013732789 2.5941854 0.019818995 -0.9967543 -0.078026 0 0
0.97381425 0.0013661806 2.6142316 0.015538853 -0.99614155 -0.08637498 0 0
0.97381425 0.025374373 2.8035226 0.06911923 -0.9347182 0.34860367 0 0
0.83706594 0.020014497 2.815627 0.035533585 -0.95003754 0.31010675 0 0
0.97381425 0.017862149 2.7819362 0.057516187 -0.95081484 0.30437317 0 0
0.97381425 0.033818457 2.8244445 0.07881247 -0.9092299 0.40876612 0 0
0.83727837 0.030071557 2.8419394 0.059435874 -0.91756225 0.3931248 0 0
0.8377595 0.041386507 2.865258 0.08378739 -0.8750995 0.47663486 0 0
0.70638156 0.052705072 2.9077399 0.05686007 -0.8898622 0.45267245 0 0
0.7038461 0.03968558 2.8791714 0.0045973486 -0.9330396 0.3597444 0 0
0.841604 0.11024967 2.9262395 0.26118 -0.45725846 0.8501175 0 0
0.8405175 0.08835092 2.9147277 0.23661855 -0.5130242 0.82511693 0 0
0.8394722 0.06895275 2.9015026 0.18895987 -0.65323627 0.73319614 0 0
0.97381425 0.075513415 2.877219 0.17546093 -0.579856 0.79560083 0 0
0.97381425 0.09609655 2.8901596 0.18409336 -0.5173871 0.8357154 0 0
0.8385196 0.053771473 2.8851254 0.12566642 -0.79542977 0.59287393 0 0
0.97381425 0.043993417 2.844508 0.101688676 -0.84994954 0.5169578 0 0
0.97381425 0.057526458 2.8624291 0.14298768 -0.724287 0.67450947 0 0
0.4674691 0.13065137 3.0957203 0.07218243 -0.8971929 0.4357002 0 0
0.5806769 0.08846321 2.9922667 0.06857256 -0.88774866 0.45519263 0 0
0.48605174 0.15421146 3.1339896 0.18464579 -0.8480597 0.49668992 0 0
0.5714699 0.07126444 2.9555454 -0.008658375 -0.9329887 0.35980147 0 0
0.7019229 0.028403793 2.8447032 -0.045483924 -0.966178 0.25383338 0 0
0.41095883 0.19142857 3.2292666 0.117413245 -0.8804103 0.4594473 0 0
0.4305116 0.21896146 3.272953 0.24242508 -0.83568215 0.49281383 0 0
0.36586827 0.23437564 3.3220792 0.08747443 -0.8845925 0.45808786 0 0
0.3459242 0.20789564 3.2712302 0.045915842 -0.89229965 0.44910255 0 0
0.37041962 0.16869313 3.1903825 0.058486413 -0.9011985 0.42944223 0 0
0.2149635 0.09776693 3.046796 0.038449854 -0.93653387 0.34846255 0 0
0.29405546 0.15989134 3.1809535 0.045537744 -0.9044905 0.42405578 0 0
0.19799584 0.1557751 3.1812377 0.028507449 -0.8997995 0.4353713 0 0
0.31855583 0.10140728 3.0425158 0.043293197 -0.9354775 0.35072434 0 0
0.28645307 0.21020369 3.2800689 0.02996748 -0.8923463 0.4503554 0 0
0.19410121 0.20777626 3.2798533 0.007864969 -0.88853115 0.45874897 0 0
0.4442951 0.24491507 3.3047595 0.38192257 -0.7646041 0.51914907 0 0
0.4989149 0.17539798 3.160964 0.29872614 -0.7895144 0.5361247 0 0
0.5886191 0.105195165 3.0195494 0.14843324 -0.8374296 0.5260032 0 0
0.97381425 0.010968075 2.7591615 0.036213957 -0.9704394 0.2386127 0 0
0.8374814 0.011826864 2.7861593 0.0076857824 -0.9766528 0.2146865 0 0
0.09926599 0.24706072 3.3540907 -0.019347949 -0.886882 0.46159068 0 0
0.0969072 0.2040234 3.2727299 -0.00242251 -0.8793239 0.4762183 0 0
0.19825274 0.2488006 3.362246 -0.0032616667 -0.8948481 0.4463589 0 0
0.29299182 0.24913967 3.3592095 0.039763138 -0.89314497 0.44800767 0 0
0.09896046 0.15193449 3.1791997 0.015494161 -0.89447385 0.44685176 0 0
0.10846102 0.09468444 3.0486677 0.021249775 -0.9378008 0.34652296 0 0
0.49576044 -0.0036710459 -1.1920929e-07 0.03944885 -0.999213 -0.004169095 0 0
0.2852732 -0.01052695 0.090400815 0.02326262 -0.99972945 6.840715e-05 0 0
0.28009045 -0.010554478 -1.1920929e-07 0.02293802 -0.9997365 -0.0009562258 0 0
5.9604645e-08 -0.014684537 -1.1920929e-07 5.336665e-09 -1 -3.629774e-08 0 0
0.35765606 0.04630096 2.861598 0.03788847 -0.9652813 0.25845045 0 0
0.2463246 0.041874673 2.864743 0.033623993 -0.96593916 0.25657544 0 0
0.12612146 0.03898438 2.8646517 0.01456303 -0.96809536 0.25015888 0 0
-0.97381413 6.7889594e-08 0.47584575 0.00010938379 -0.9997144 0.023901258 0 0
0.3588354 0.4184444 3.5917716 0.2790402 -0.7713023 0.5720398 0 0
3 0 1 2
3 0 3 4
3 4 5 6
3 4 7 1
3 8 9 10
3 11 12 9
3 9 5 13
3 10 13 14
3 15 16 3
3 17 18 16
3 16 14 13
3 3 13 5
3 19 20 21
3 22 23 19
3 24 25 23
3 23 26 20
3 27 24 22
3 28 29 27
3 30 31 29
3 29 32 24
3 33 34 35
3 21 36 33
3 20 37 36
3 34 37 38
3 39 40 41
3 42 43 39
3 44 45 43
3 43 46 40
3 47 48 49
3 50 44 48
3 44 51 48
3 49 51 52
3 53 54 55
3 56 57 53
3 58 59 57
3 57 60 54
3 61 62 63
3 64 65 62
3 62 66 67
3 63 67 68
3 69 70 71
3 72 73 70
3 73 74 70
3 71 74 75
3 76 77 73
3 78 77 79
3 80 81 77
3 73 81 82
3 83 84 85
3 86 87 84
3 84 88 89
3 85 89 90
3 38 91 92
3 37 93 91
3 91 94 86
3 92 86 83
3 95 96 97
3 98 49 96
3 96 52 99
3 97 99 100
3 25 101 26
3 32 102 25
3 103 104 102
3 102 105 101
3 31 103 32
3 106 107 31
3 108 109 107
3 107 110 103
3 90 111 112
3 88 111 89
3 113 114 111
3 112 114 115
3 52 116 117
3 42 116 51
3 118 119 116
3 117 119 120
3 121 122 123
3 121 124 125
3 125 120 119
3 125 126 122
3 93 127 94
3 26 128 93
3 101 129 128
3 127 129 130
3 87 113 88
3 94 131 87
3 131 130 132
3 113 132 133
3 134 135 136
3 100 137 134
3 99 117 137
3 137 120 135
3 138 139 140
3 136 141 138
3 135 124 141
3 141 142 139
3 143 144 145
3 143 146 147
3 147 148 149
3 147 150 144
3 151 152 146
3 153 154 152
3 152 155 156
3 146 156 148
3 157 158 159
3 160 161 157
3 162 163 161
3 161 164 158
3 123 165 121
3 166 165 167
3 168 169 165
3 165 142 121
3 170 118 42
3 171 172 170
3 173 174 172
3 172 126 118
3 174 122 126
3 175 176 174
3 177 167 176
3 176 123 122
3 41 178 39
3 179 180 178
3 180 170 178
3 39 170 42
3 181 182 183
3 184 185 182
3 182 164 186
3 183 186 140
3 187 188 189
3 190 114 188
3 188 133 191
3 189 191 192
3 193 194 195
3 196 197 194
3 194 198 199
3 195 199 200
3 201 202 203
3 204 205 202
3 202 200 199
3 203 199 198
3 206 207 208
3 209 79 207
3 79 210 207
3 207 211 208
3 212 213 214
3 155 215 212
3 154 216 215
3 215 217 213
3 218 219 220
3 218 216 221
3 221 222 223
3 219 223 192
3 224 225 226
3 227 228 225
3 225 229 230
3 226 230 231
3 232 129 105
3 232 228 233
3 228 234 233
3 233 130 129
3 234 132 130
3 220 235 234
3 235 192 191
3 132 191 133
3 236 153 151
3 236 189 237
3 237 192 223
3 237 222 153
3 238 239 169
3 240 183 239
3 239 140 139
3 169 139 142
3 163 186 164
3 241 242 163
3 243 138 242
3 242 140 186
3 244 243 241
3 245 246 244
3 247 134 246
3 246 136 243
3 198 248 203
3 249 250 248
3 248 231 251
3 203 251 201
3 252 74 82
3 252 226 253
3 253 231 250
3 253 75 74
3 254 255 256
3 224 257 254
3 252 258 257
3 257 259 255
3 260 230 229
3 261 262 260
3 263 251 262
3 262 231 230
3 264 263 261
3 265 266 264
3 267 204 266
3 266 201 263
3 109 268 110
3 269 270 109
3 271 264 270
3 270 261 268
3 272 273 274
3 275 254 273
3 273 256 276
3 274 276 277
3 278 279 197
3 280 71 279
3 279 75 249
3 197 249 198
3 272 281 275
3 217 281 282
3 281 220 227
3 275 227 224
3 283 284 285
3 286 287 284
3 284 288 289
3 285 289 290
3 244 287 245
3 241 291 244
3 291 160 292
3 287 292 288
3 293 67 66
3 7 294 293
3 295 296 294
3 294 68 67
3 6 295 7
3 6 12 297
3 297 298 299
3 297 300 295
3 301 302 303
3 304 63 302
3 302 68 305
3 303 305 306
3 307 308 309
3 310 311 308
3 308 298 11
3 309 11 8
3 296 305 68
3 300 312 296
3 313 314 312
3 312 306 305
3 299 313 300
3 299 311 315
3 315 316 317
3 315 318 313
3 319 320 321
3 322 210 320
3 320 76 72
3 321 72 69
3 323 196 193
3 324 325 323
3 326 327 325
3 325 278 196
3 321 328 319
3 69 329 321
3 280 327 329
3 329 330 328
3 331 332 333
3 334 335 332
3 332 336 179
3 333 179 41
3 337 338 45
3 339 340 338
3 338 341 342
3 45 342 46
3 333 343 331
3 41 344 333
3 40 345 344
3 344 346 343
3 347 348 349
3 350 351 347
3 352 33 351
3 351 35 348
3 353 354 355
3 356 357 353
3 358 27 357
3 357 22 354
3 359 352 350
3 355 360 359
3 354 19 360
3 360 21 352
3 104 232 105
3 110 361 104
3 268 260 361
3 361 229 232
3 362 342 341
3 363 364 362
3 365 345 364
3 364 46 342
3 366 367 59
3 368 97 367
3 367 100 369
3 59 369 60
3 370 50 47
3 370 371 372
3 372 373 339
3 372 337 50
3 374 375 335
3 349 375 376
3 348 377 375
3 335 377 336
3 145 378 143
3 184 379 378
3 379 236 378
3 378 151 143
3 181 380 379
3 240 381 380
3 380 115 190
3 379 190 187
3 185 158 164
3 145 382 185
3 144 383 382
3 382 159 158
3 282 213 217
3 272 384 282
3 274 385 384
3 384 214 213
3 386 168 166
3 386 112 387
3 387 115 381
3 387 238 168
3 388 173 171
3 388 92 389
3 389 83 390
3 389 175 173
3 390 177 175
3 390 85 391
3 391 90 386
3 391 166 177
3 336 392 180
3 35 392 377
3 392 38 388
3 392 171 180
3 60 393 394
3 369 247 393
3 247 286 393
3 394 286 283
3 395 396 397
3 366 398 395
3 58 399 398
3 398 400 396
3 401 402 403
3 404 405 401
3 405 47 98
3 402 98 95
3 403 406 407
3 95 406 402
3 368 395 406
3 407 395 397
3 408 409 410
3 411 412 408
3 413 414 412
3 412 415 409
3 416 304 301
3 417 418 416
3 419 420 418
3 418 61 304
3 420 64 61
3 421 422 420
3 423 414 422
3 422 424 64
3 425 426 427
3 411 428 425
3 429 53 428
3 428 55 426
3 427 430 431
3 426 432 430
3 430 433 434
3 431 434 2
3 435 436 437
3 438 439 436
3 436 433 432
3 437 432 55
3 66 440 293
3 441 431 440
3 440 2 1
3 293 1 7
3 65 441 66
3 424 442 65
3 413 425 442
3 442 427 441
3 399 443 400
3 56 444 399
3 429 408 444
3 444 410 443
3 445 446 447
3 448 449 446
3 446 450 17
3 447 17 15
3 439 434 433
3 439 447 451
3 451 15 0
3 451 2 434
3 452 453 454
3 448 438 453
3 438 455 453
3 453 456 454
3 457 458 81
3 459 460 458
3 460 258 458
3 81 258 82
3 394 54 60
3 283 461 394
3 462 437 461
3 461 55 54
3 285 462 283
3 290 463 285
3 464 455 463
3 463 435 462
3 465 466 467
3 468 469 465
3 469 470 471
3 466 471 472
3 8 473 474
3 10 475 473
3 473 470 476
3 474 476 477
3 472 478 479
3 471 475 478
3 478 14 18
3 479 18 450
3 480 481 482
3 483 484 480
3 485 486 484
3 484 487 481
3 486 488 487
3 489 490 486
3 491 492 490
3 490 493 488
3 494 495 496
3 494 497 498
3 497 480 498
3 498 482 495
3 499 500 501
3 502 503 499
3 504 505 503
3 503 506 500
3 507 508 509
3 510 511 508
3 511 505 508
3 509 505 512
3 513 514 515
3 516 517 513
3 518 519 517
3 517 520 514
3 521 522 523
3 524 525 522
3 522 526 527
3 523 527 528
3 529 530 531
3 532 533 530
3 533 534 530
3 531 534 535
3 535 536 537
3 534 538 536
3 538 539 536
3 536 540 537
3 541 542 543
3 544 545 542
3 542 546 547
3 543 547 548
3 549 550 497
3 551 543 550
3 550 548 552
3 497 552 483
3 553 554 555
3 556 557 554
3 554 558 510
3 555 510 507
3 559 485 483
3 560 561 559
3 562 563 561
3 561 489 485
3 563 491 489
3 564 565 563
3 566 567 565
3 565 568 491
3 569 570 545
3 571 572 570
3 572 573 570
3 570 546 545
3 558 574 511
3 575 576 574
3 576 577 574
3 574 506 511
3 578 579 580
3 581 582 578
3 582 583 584
3 579 584 585
3 586 552 548
3 586 587 588
3 587 559 588
3 588 483 552
3 573 547 546
3 573 589 590
3 590 591 586
3 590 548 547
3 592 593 594
3 583 595 592
3 575 557 595
3 595 596 593
3 597 598 599
3 585 600 597
3 584 592 600
3 600 594 598
3 601 602 603
3 150 604 601
3 604 148 605
3 602 605 606
3 606 607 608
3 605 156 607
3 607 155 609
3 608 609 610
3 611 157 159
3 612 613 611
3 614 615 613
3 613 160 157
3 580 616 617
3 585 616 579
3 618 619 616
3 616 620 617
3 577 621 506
3 581 622 577
3 623 624 622
3 622 625 621
3 578 623 581
3 580 626 578
3 617 627 626
3 626 628 623
3 501 629 630
3 500 621 629
3 621 631 629
3 630 631 632
3 633 634 635
3 636 637 634
3 634 612 638
3 635 638 603
3 639 640 641
3 642 643 640
3 640 644 572
3 641 572 645
3 646 647 648
3 649 650 647
3 647 651 652
3 648 652 653
3 654 655 656
3 657 650 655
3 655 658 659
3 656 659 660
3 661 662 663
3 664 662 665
3 666 537 662
3 663 537 540
3 667 212 214
3 668 669 667
3 670 609 669
3 669 155 212
3 671 672 673
3 671 674 675
3 675 610 670
3 672 670 668
3 676 677 678
3 679 680 677
3 677 681 682
3 678 682 673
3 587 683 560
3 591 684 587
3 685 682 684
3 683 682 681
3 589 685 591
3 589 643 686
3 686 687 671
3 686 673 685
3 608 688 606
3 610 689 608
3 689 687 642
3 688 642 639
3 690 691 692
3 618 597 691
3 691 599 636
3 692 636 633
3 637 614 612
3 599 693 637
3 598 694 693
3 693 695 614
3 694 696 695
3 594 697 694
3 593 698 697
3 697 699 696
3 651 700 701
3 657 702 700
3 700 703 704
3 701 704 705
3 533 706 707
3 705 708 533
3 708 703 679
3 706 679 676
3 255 709 256
3 259 710 255
3 711 706 710
3 710 676 709
3 680 712 681
3 703 713 680
3 702 714 713
3 713 715 712
3 714 716 715
3 654 717 714
3 656 718 717
3 717 719 716
3 720 566 564
3 715 721 720
3 716 722 721
3 721 723 566
3 724 725 726
3 727 276 725
3 725 256 709
3 726 709 676
3 653 728 729
3 652 701 728
3 728 705 532
3 729 532 529
3 724 730 731
3 726 678 730
3 730 673 672
3 730 668 731
3 732 733 734
3 735 289 733
3 733 288 736
3 734 736 699
3 736 696 699
3 736 292 737
3 737 160 615
3 737 695 696
3 525 738 526
3 739 740 525
3 741 742 740
3 740 468 738
3 742 743 468
3 744 745 742
3 745 477 476
3 743 476 470
3 746 747 748
3 749 750 747
3 747 739 524
3 748 524 521
3 307 751 752
3 309 474 751
3 751 477 753
3 752 753 754
3 750 741 739
3 755 756 750
3 757 758 756
3 756 744 741
3 758 759 744
3 760 761 758
3 761 754 753
3 759 753 477
3 762 763 764
3 765 531 763
3 763 535 666
3 764 666 664
3 648 766 646
3 653 767 648
3 768 769 767
3 767 770 766
3 771 765 762
3 772 773 771
3 768 729 773
3 773 529 765
3 774 775 776
3 777 630 775
3 775 632 778
3 776 778 779
3 512 780 781
3 504 782 780
3 780 783 784
3 781 784 785
3 786 777 774
3 787 788 786
3 789 499 788
3 788 501 777
3 790 791 792
3 496 793 790
3 495 794 793
3 793 795 791
3 796 797 798
3 487 799 796
3 488 800 799
3 799 801 797
3 794 802 795
3 482 803 794
3 481 796 803
3 803 798 802
3 683 562 560
3 681 804 683
3 712 720 804
3 804 564 562
3 782 805 783
3 502 806 782
3 789 807 806
3 806 808 805
3 809 810 811
3 518 812 810
3 810 596 556
3 811 556 553
3 509 813 507
3 512 814 509
3 814 785 815
3 813 815 816
3 779 817 818
3 778 819 817
3 819 790 817
3 817 792 818
3 603 820 635
3 606 820 602
3 688 821 820
3 635 821 633
3 633 822 692
3 821 641 822
3 822 645 823
3 692 823 690
3 611 638 612
3 159 824 611
3 383 601 824
3 824 603 638
3 667 731 668
3 214 825 667
3 385 727 825
3 825 724 731
3 619 826 620
3 690 827 619
3 827 645 571
3 826 571 569
3 624 828 625
3 628 829 624
3 829 541 551
3 828 551 549
3 627 830 628
3 620 831 627
3 831 569 544
3 830 544 541
3 632 832 819
3 625 832 631
3 832 549 494
3 832 496 819
3 516 833 812
3 834 734 833
3 734 698 833
3 812 698 596
3 835 836 837
3 838 839 835
3 840 519 839
3 839 809 836
3 841 842 843
3 841 555 844
3 844 507 813
3 844 816 842
3 843 845 841
3 846 836 845
3 836 811 845
3 845 553 841
3 847 848 849
3 850 851 847
3 852 853 851
3 851 854 848
3 748 855 746
3 521 856 748
3 857 858 856
3 856 859 855
3 523 857 521
3 528 860 523
3 852 861 860
3 860 862 857
3 863 864 865
3 515 866 863
3 514 867 866
3 866 854 864
3 865 868 863
3 869 870 868
3 868 871 872
3 863 872 515
3 873 874 875
3 876 872 874
3 874 871 877
3 875 877 878
3 526 879 880
3 738 465 879
3 879 467 869
3 880 869 865
3 880 527 526
3 865 881 880
3 864 853 881
3 881 528 527
3 882 840 838
3 849 883 882
3 848 867 883
3 883 520 840
3 878 884 885
3 886 479 884
3 884 450 449
3 885 449 452
3 870 877 871
3 467 887 870
3 887 472 886
3 877 886 878
3 452 888 885
3 456 888 454
3 889 875 888
3 885 875 878
3 890 891 892
3 538 711 891
3 711 460 891
3 892 460 893
3 513 834 516
3 515 894 513
3 876 895 894
3 894 732 834
3 895 735 732
3 873 896 895
3 889 464 896
3 896 290 735
3 0 4 1
3 0 15 3
3 4 3 5
3 4 6 7
3 8 11 9
3 11 298 12
3 9 12 5
3 10 9 13
3 15 17 16
3 17 450 18
3 16 18 14
3 3 16 13
3 19 23 20
3 22 24 23
3 24 32 25
3 23 25 26
3 27 29 24
3 28 30 29
3 30 106 31
3 29 31 32
3 33 36 34
3 21 20 36
3 20 26 37
3 34 36 37
3 39 43 40
3 42 44 43
3 44 337 45
3 43 45 46
3 47 50 48
3 50 337 44
3 44 42 51
3 49 48 51
3 53 57 54
3 56 58 57
3 58 366 59
3 57 59 60
3 61 64 62
3 64 424 65
3 62 65 66
3 63 62 67
3 69 72 70
3 72 76 73
3 73 82 74
3 71 70 74
3 76 79 77
3 78 80 77
3 80 457 81
3 73 77 81
3 83 86 84
3 86 94 87
3 84 87 88
3 85 84 89
3 38 37 91
3 37 26 93
3 91 93 94
3 92 91 86
3 95 98 96
3 98 47 49
3 96 49 52
3 97 96 99
3 25 102 101
3 32 103 102
3 103 110 104
3 102 104 105
3 31 107 103
3 106 108 107
3 108 269 109
3 107 109 110
3 90 89 111
3 88 113 111
3 113 133 114
3 112 111 114
3 52 51 116
3 42 118 116
3 118 126 119
3 117 116 119
3 121 125 122
3 121 142 124
3 125 124 120
3 125 119 126
3 93 128 127
3 26 101 128
3 101 105 129
3 127 128 129
3 87 131 113
3 94 127 131
3 131 127 130
3 113 131 132
3 134 137 135
3 100 99 137
3 99 52 117
3 137 117 120
3 138 141 139
3 136 135 141
3 135 120 124
3 141 124 142
3 143 147 144
3 143 151 146
3 147 146 148
3 147 149 150
3 151 153 152
3 153 222 154
3 152 154 155
3 146 152 156
3 157 161 158
3 160 162 161
3 162 241 163
3 161 163 164
3 123 167 165
3 166 168 165
3 168 238 169
3 165 169 142
3 170 172 118
3 171 173 172
3 173 175 174
3 172 174 126
3 174 176 122
3 175 177 176
3 177 166 167
3 176 167 123
3 41 179 178
3 179 336 180
3 180 171 170
3 39 178 170
3 181 184 182
3 184 145 185
3 182 185 164
3 183 182 186
3 187 190 188
3 190 115 114
3 188 114 133
3 189 188 191
3 193 196 194
3 196 278 197
3 194 197 198
3 195 194 199
3 201 204 202
3 204 897 205
3 202 205 200
3 203 202 199
3 206 209 207
3 209 78 79
3 79 76 210
3 207 210 211
3 212 215 213
3 155 154 215
3 154 222 216
3 215 216 217
3 218 221 219
3 218 217 216
3 221 216 222
3 219 221 223
3 224 227 225
3 227 220 228
3 225 228 229
3 226 225 230
3 232 233 129
3 232 229 228
3 228 220 234
3 233 234 130
3 234 235 132
3 220 219 235
3 235 219 192
3 132 235 191
3 236 237 153
3 236 187 189
3 237 189 192
3 237 223 222
3 238 240 239
3 240 181 183
3 239 183 140
3 169 239 139
3 163 242 186
3 241 243 242
3 243 136 138
3 242 138 140
3 244 246 243
3 245 247 246
3 247 100 134
3 246 134 136
3 198 249 248
3 249 75 250
3 248 250 231
3 203 248 251
3 252 253 74
3 252 224 226
3 253 226 231
3 253 250 75
3 254 257 255
3 224 252 257
3 252 82 258
3 257 258 259
3 260 262 230
3 261 263 262
3 263 201 251
3 262 251 231
3 264 266 263
3 265 267 266
3 267 897 204
3 266 204 201
3 109 270 268
3 269 271 270
3 271 265 264
3 270 264 261
3 272 275 273
3 275 224 254
3 273 254 256
3 274 273 276
3 278 280 279
3 280 69 71
3 279 71 75
3 197 279 249
3 272 282 281
3 217 218 281
3 281 218 220
3 275 281 227
3 283 286 284
3 286 245 287
3 284 287 288
3 285 284 289
3 244 291 287
3 241 162 291
3 291 162 160
3 287 291 292
3 293 294 67
3 7 295 294
3 295 300 296
3 294 296 68
3 6 297 295
3 6 5 12
3 297 12 298
3 297 299 300
3 301 304 302
3 304 61 63
3 302 63 68
3 303 302 305
3 307 310 308
3 310 316 311
3 308 311 298
3 309 308 11
3 296 312 305
3 300 313 312
3 313 318 314
3 312 314 306
3 299 315 313
3 299 298 311
3 315 311 316
3 315 317 318
3 319 322 320
3 322 211 210
3 320 210 76
3 321 320 72
3 323 325 196
3 324 326 325
3 326 330 327
3 325 327 278
3 321 329 328
3 69 280 329
3 280 278 327
3 329 327 330
3 331 334 332
3 334 374 335
3 332 335 336
3 333 332 179
3 337 339 338
3 339 373 340
3 338 340 341
3 45 338 342
3 333 344 343
3 41 40 344
3 40 46 345
3 344 345 346
3 347 351 348
3 350 352 351
3 352 21 33
3 351 33 35
3 353 357 354
3 356 358 357
3 358 28 27
3 357 27 22
3 359 360 352
3 355 354 360
3 354 22 19
3 360 19 21
3 104 361 232
3 110 268 361
3 268 261 260
3 361 260 229
3 362 364 342
3 363 365 364
3 365 346 345
3 364 345 46
3 366 368 367
3 368 95 97
3 367 97 100
3 59 367 369
3 370 372 50
3 370 404 371
3 372 371 373
3 372 339 337
3 374 376 375
3 349 348 375
3 348 35 377
3 335 375 377
3 145 184 378
3 184 181 379
3 379 187 236
3 378 236 151
3 181 240 380
3 240 238 381
3 380 381 115
3 379 380 190
3 185 382 158
3 145 144 382
3 144 150 383
3 382 383 159
3 282 384 213
3 272 274 384
3 274 277 385
3 384 385 214
3 386 387 168
3 386 90 112
3 387 112 115
3 387 381 238
3 388 389 173
3 388 38 92
3 389 92 83
3 389 390 175
3 390 391 177
3 390 83 85
3 391 85 90
3 391 386 166
3 336 377 392
3 35 34 392
3 392 34 38
3 392 388 171
3 60 369 393
3 369 100 247
3 247 245 286
3 394 393 286
3 395 398 396
3 366 58 398
3 58 56 399
3 398 399 400
3 401 405 402
3 404 370 405
3 405 370 47
3 402 405 98
3 403 402 406
3 95 368 406
3 368 366 395
3 407 406 395
3 408 412 409
3 411 413 412
3 413 424 414
3 412 414 415
3 416 418 304
3 417 419 418
3 419 421 420
3 418 420 61
3 420 422 64
3 421 423 422
3 423 415 414
3 422 414 424
3 425 428 426
3 411 429 428
3 429 56 53
3 428 53 55
3 427 426 430
3 426 55 432
3 430 432 433
3 431 430 434
3 435 438 436
3 438 445 439
3 436 439 433
3 437 436 432
3 66 441 440
3 441 427 431
3 440 431 2
3 293 440 1
3 65 442 441
3 424 413 442
3 413 411 425
3 442 425 427
3 399 444 443
3 56 429 444
3 429 411 408
3 444 408 410
3 445 448 446
3 448 452 449
3 446 449 450
3 447 446 17
3 439 451 434
3 439 445 447
3 451 447 15
3 451 0 2
3 452 448 453
3 448 445 438
3 438 435 455
3 453 455 456
3 457 459 458
3 459 893 460
3 460 259 258
3 81 458 258
3 394 461 54
3 283 462 461
3 462 435 437
3 461 437 55
3 285 463 462
3 290 464 463
3 464 456 455
3 463 455 435
3 465 469 466
3 468 743 469
3 469 743 470
3 466 469 471
3 8 10 473
3 10 14 475
3 473 475 470
3 474 473 476
3 472 471 478
3 471 470 475
3 478 475 14
3 479 478 18
3 480 484 481
3 483 485 484
3 485 489 486
3 484 486 487
3 486 490 488
3 489 491 490
3 491 568 492
3 490 492 493
3 494 498 495
3 494 549 497
3 497 483 480
3 498 480 482
3 499 503 500
3 502 504 503
3 504 512 505
3 503 505 506
3 507 510 508
3 510 558 511
3 511 506 505
3 509 508 505
3 513 517 514
3 516 518 517
3 518 809 519
3 517 519 520
3 521 524 522
3 524 739 525
3 522 525 526
3 523 522 527
3 529 532 530
3 532 705 533
3 533 707 534
3 531 530 534
3 535 534 536
3 534 707 538
3 538 890 539
3 536 539 540
3 541 544 542
3 544 569 545
3 542 545 546
3 543 542 547
3 549 551 550
3 551 541 543
3 550 543 548
3 497 550 552
3 553 556 554
3 556 596 557
3 554 557 558
3 555 554 510
3 559 561 485
3 560 562 561
3 562 564 563
3 561 563 489
3 563 565 491
3 564 566 565
3 566 723 567
3 565 567 568
3 569 571 570
3 571 645 572
3 572 644 573
3 570 573 546
3 558 575 574
3 575 583 576
3 576 581 577
3 574 577 506
3 578 582 579
3 581 576 582
3 582 576 583
3 579 582 584
3 586 588 552
3 586 591 587
3 587 560 559
3 588 559 483
3 573 590 547
3 573 644 589
3 590 589 591
3 590 586 548
3 592 595 593
3 583 575 595
3 575 558 557
3 595 557 596
3 597 600 598
3 585 584 600
3 584 583 592
3 600 592 594
3 601 604 602
3 150 149 604
3 604 149 148
3 602 604 605
3 606 605 607
3 605 148 156
3 607 156 155
3 608 607 609
3 611 613 157
3 612 614 613
3 614 695 615
3 613 615 160
3 580 579 616
3 585 618 616
3 618 690 619
3 616 619 620
3 577 622 621
3 581 623 622
3 623 628 624
3 622 624 625
3 578 626 623
3 580 617 626
3 617 620 627
3 626 627 628
3 501 500 629
3 500 506 621
3 621 625 631
3 630 629 631
3 633 636 634
3 636 599 637
3 634 637 612
3 635 634 638
3 639 642 640
3 642 687 643
3 640 643 644
3 641 640 572
3 646 649 647
3 649 658 650
3 647 650 651
3 648 647 652
3 654 657 655
3 657 651 650
3 655 650 658
3 656 655 659
3 661 665 662
3 664 666 662
3 666 535 537
3 663 662 537
3 667 669 212
3 668 670 669
3 670 610 609
3 669 609 155
3 671 675 672
3 671 687 674
3 675 674 610
3 672 675 670
3 676 679 677
3 679 703 680
3 677 680 681
3 678 677 682
3 587 684 683
3 591 685 684
3 685 673 682
3 683 684 682
3 589 686 685
3 589 644 643
3 686 643 687
3 686 671 673
3 608 689 688
3 610 674 689
3 689 674 687
3 688 689 642
3 690 618 691
3 618 585 597
3 691 597 599
3 692 691 636
3 637 693 614
3 599 598 693
3 598 594 694
3 693 694 695
3 694 697 696
3 594 593 697
3 593 596 698
3 697 698 699
3 651 657 700
3 657 654 702
3 700 702 703
3 701 700 704
3 533 708 706
3 705 704 708
3 708 704 703
3 706 708 679
3 255 710 709
3 259 711 710
3 711 707 706
3 710 706 676
3 680 713 712
3 703 702 713
3 702 654 714
3 713 714 715
3 714 717 716
3 654 656 717
3 656 660 718
3 717 718 719
3 720 721 566
3 715 716 721
3 716 719 722
3 721 722 723
3 724 727 725
3 727 277 276
3 725 276 256
3 726 725 709
3 653 652 728
3 652 651 701
3 728 701 705
3 729 728 532
3 724 726 730
3 726 676 678
3 730 678 673
3 730 672 668
3 732 735 733
3 735 290 289
3 733 289 288
3 734 733 736
3 736 737 696
3 736 288 292
3 737 292 160
3 737 615 695
3 525 740 738
3 739 741 740
3 741 744 742
3 740 742 468
3 742 745 743
3 744 759 745
3 745 759 477
3 743 745 476
3 746 749 747
3 749 755 750
3 747 750 739
3 748 747 524
3 307 309 751
3 309 8 474
3 751 474 477
3 752 751 753
3 750 756 741
3 755 757 756
3 757 760 758
3 756 758 744
3 758 761 759
3 760 898 761
3 761 898 754
3 759 761 753
3 762 765 763
3 765 529 531
3 763 531 535
3 764 763 666
3 648 767 766
3 653 768 767
3 768 772 769
3 767 769 770
3 771 773 765
3 772 768 773
3 768 653 729
3 773 729 529
3 774 777 775
3 777 501 630
3 775 630 632
3 776 775 778
3 512 504 780
3 504 502 782
3 780 782 783
3 781 780 784
3 786 788 777
3 787 789 788
3 789 502 499
3 788 499 501
3 790 793 791
3 496 495 793
3 495 482 794
3 793 794 795
3 796 799 797
3 487 488 799
3 488 493 800
3 799 800 801
3 794 803 802
3 482 481 803
3 481 487 796
3 803 796 798
3 683 804 562
3 681 712 804
3 712 715 720
3 804 720 564
3 782 806 805
3 502 789 806
3 789 787 807
3 806 807 808
3 809 518 810
3 518 516 812
3 810 812 596
3 811 810 556
3 509 814 813
3 512 781 814
3 814 781 785
3 813 814 815
3 779 778 817
3 778 632 819
3 819 496 790
3 817 790 792
3 603 602 820
3 606 688 820
3 688 639 821
3 635 820 821
3 633 821 822
3 821 639 641
3 822 641 645
3 692 822 823
3 611 824 638
3 159 383 824
3 383 150 601
3 824 601 603
3 667 825 731
3 214 385 825
3 385 277 727
3 825 727 724
3 619 827 826
3 690 823 827
3 827 823 645
3 826 827 571
3 624 829 828
3 628 830 829
3 829 830 541
3 828 829 551
3 627 831 830
3 620 826 831
3 831 826 569
3 830 831 544
3 632 631 832
3 625 828 832
3 832 828 549
3 832 494 496
3 516 834 833
3 834 732 734
3 734 699 698
3 812 833 698
3 835 839 836
3 838 840 839
3 840 520 519
3 839 519 809
3 841 844 842
3 841 553 555
3 844 555 507
3 844 813 816
3 843 846 845
3 846 837 836
3 836 809 811
3 845 811 553
3 847 851 848
3 850 852 851
3 852 528 853
3 851 853 854
3 748 856 855
3 521 857 856
3 857 862 858
3 856 858 859
3 523 860 857
3 528 852 860
3 852 850 861
3 860 861 862
3 863 866 864
3 515 514 866
3 514 520 867
3 866 867 854
3 865 869 868
3 869 467 870
3 868 870 871
3 863 868 872
3 873 876 874
3 876 515 872
3 874 872 871
3 875 874 877
3 526 738 879
3 738 468 465
3 879 465 467
3 880 879 869
3 880 881 527
3 865 864 881
3 864 854 853
3 881 853 528
3 882 883 840
3 849 848 883
3 848 854 867
3 883 867 520
3 878 886 884
3 886 472 479
3 884 479 450
3 885 884 449
3 870 887 877
3 467 466 887
3 887 466 472
3 877 887 886
3 452 454 888
3 456 889 888
3 889 873 875
3 885 888 875
3 890 538 891
3 538 707 711
3 711 259 460
3 892 891 460
3 513 894 834
3 515 876 894
3 876 873 895
3 894 895 732
3 895 896 735
3 873 889 896
3 889 456 464
3 896 464 290
