ply
format ascii 1.0
comment Created in Blender version 4.3.2
element vertex 244
property float x
property float y
property float z
property float nx
property float ny
property float nz
property float s
property float t
element face 412
property list uchar uint vertex_indices
end_header
-0.10351786 0.061781585 3.5690365 -0.01767136 -0.98867744 0.14901239 0 0
-0.20414755 0.075732216 3.615694 -0.16477527 -0.96135545 0.22055595 0 0
-0.16984868 0.05812633 3.5427604 -0.043542735 -0.98319787 0.17727426 0 0
-0.10467887 0.11877736 3.960442 -0.17790902 -0.9572764 0.22796991 0 0
0 0.09139888 3.7819471 3.8725156e-09 -0.9897386 0.14288998 0 0
0 0.12161878 3.999186 4.430628e-08 -0.9702221 0.24221736 0 0
0 0.06047324 3.5596318 2.1703843e-09 -0.9904627 0.13778111 0 0
-0.09847313 0.08577234 3.7414985 -0.066336334 -0.98678684 0.14782201 0 0
-0.93177557 -0.037828606 0.8189318 -2.8322233e-08 -1 4.371139e-08 0 0
-0.85686517 -0.037828606 0.8539276 2.353998e-08 -1 4.7242383e-09 0 0
-0.9056144 -0.037828602 0.8746776 3.0764696e-08 -1 2.8088905e-08 0 0
-0.9738141 -0.037828606 0.7893023 0 -1 -1.2724053e-07 0 0
-0.9066956 -0.037828606 0.7854166 -5.2676867e-08 -1 -6.481153e-08 0 0
-0.8584903 -0.0378286 1.3274338 7.516851e-10 -1 4.4829496e-09 0 0
-0.9059523 -0.0378286 1.3274338 0 -1 5.48066e-09 0 0
-0.9023638 -0.037828602 2.2872796 7.736759e-09 -1 2.2755193e-08 0 0
-0.9066956 -0.0378286 2.3731546 -7.354381e-08 -1 -2.7148372e-08 0 0
-0.93177557 -0.0378286 2.3399343 7.390816e-08 -1 4.371139e-08 0 0
-0.86011827 -0.037828606 2.4227357 -2.3980773e-08 -1 -1.1640895e-08 0 0
-0.8409015 -0.037828602 2.3019834 4.2326684e-09 -1 -1.2836225e-08 0 0
-0.7475958 -0.0378286 2.3464856 -4.4720956e-09 -1 -1.4383562e-08 0 0
-0.7015632 -0.037828602 2.7668324 0.005724185 -0.9999835 0.0005112614 0 0
-0.5122933 -0.0378286 2.6562605 0.0027586496 -0.9999612 0.008367185 0 0
-0.42157808 -0.03423252 2.8081636 0.014536001 -0.9985586 0.05166762 0 0
-0.70183563 -0.007261089 2.9317918 -0.07616846 -0.9504707 0.301337 0 0
-0.4840542 -0.016069464 2.99624 -0.09116945 -0.973806 0.20830262 0 0
-0.5130778 0.005692046 3.0430586 -0.17084493 -0.94770443 0.2695705 0 0
-0.7390992 -0.0378286 0.21466148 4.9582414e-09 -1 1.7310233e-08 0 0
-0.60575515 -0.0378286 0.17131668 -3.2494227e-09 -1 1.6574336e-09 0 0
-0.68722 -0.0378286 0.28430063 -5.4166192e-11 -1 -6.741413e-09 0 0
-0.67286897 -0.0378286 0.11624372 -6.3172614e-08 -1 -3.362058e-08 0 0
-0.5816543 -0.0378286 0 9.457832e-10 -1 -3.2991847e-09 0 0
-0.7526598 -0.0378286 1.3274338 2.9877518e-09 -1 4.8179544e-10 0 0
-0.6590586 -0.037828594 1.0308363 2.853918e-08 -1 1.8482757e-08 0 0
-0.6590586 -0.0378286 1.3274338 4.088449e-10 -1 -3.64078e-09 0 0
-0.7377496 -0.0378286 0.94508916 1.9559865e-08 -1 9.859121e-09 0 0
-0.7848464 -0.0378286 2.4997296 3.7815298e-08 -1 1.0803091e-08 0 0
-0.6352333 -0.0378286 2.3989613 -1.0365664e-08 -1 -2.6716813e-09 0 0
-0.75410545 -0.037828594 0.7287235 -9.8840385e-09 -1 -3.6667205e-09 0 0
-0.9738141 -0.037828594 0.74842316 -6.600774e-08 -1 -1.4025738e-07 0 0
-0.83688134 -0.0378286 0.68259335 -1.8904636e-10 -1 -1.206536e-08 0 0
-0.5387541 -0.037828594 1.0544972 -8.1101454e-09 -1 8.3411775e-09 0 0
-0.5181992 -0.0378286 1.3274338 3.057587e-10 -1 -4.9813655e-09 0 0
-0.7334993 -0.03782859 2.1362283 1.2093513e-08 -1 -4.650177e-09 0 0
-0.6055993 -0.0378286 2.171578 -1.8118584e-08 -1 -6.023702e-09 0 0
-0.6599106 -0.0378286 2.024827 -3.1706435e-08 -1 7.873948e-09 0 0
-0.6353048 -0.037828606 0.8479665 1.9534254e-09 -1 -2.0486097e-09 0 0
-0.4605678 -0.0378286 2.1585684 -6.0990604e-09 -1 -7.230671e-09 0 0
-0.5354295 -0.0378286 2.0091128 4.553886e-09 -1 1.852245e-10 0 0
-0.41974396 -0.0378286 2.042235 -1.9278223e-10 -1 -9.988616e-09 0 0
-0.27118793 -0.0378286 1.6555918 -3.1071932e-09 -1 1.11771974e-10 0 0
0 -0.0378286 1.327434 0 -1 1.620339e-09 0 0
0 -0.0378286 1.655592 -3.421852e-10 -1 9.810657e-10 0 0
-0.28575537 -0.0378286 1.327434 -1.7824704e-10 -1 1.6204843e-09 0 0
0 -0.0378286 0.96432006 -1.8588681e-09 -1 1.292015e-09 0 0
0 -0.037828602 2.183374 -2.477066e-10 -1 -9.6627835e-09 0 0
-0.27118793 -0.0378286 1.9888251 -1.2860427e-08 -1 -7.132527e-09 0 0
0 -0.0378286 1.9194837 -2.265748e-09 -1 -4.057824e-09 0 0
-0.6590586 -0.0378286 1.6555918 0 -1 1.6078253e-09 0 0
-0.8602295 -0.0378286 1.6555918 3.5281458e-09 -1 1.9024242e-09 0 0
-0.75414443 -0.0378286 1.6555918 -2.3163156e-09 -1 4.651782e-09 0 0
-0.3961612 -0.0378286 1.6555918 -6.0437233e-10 -1 9.82934e-10 0 0
-0.3961612 -0.0378286 1.327434 -2.4131201e-09 -1 -5.3227217e-10 0 0
-0.41974396 -0.0378286 0.96334606 -1.0160975e-08 -1 -5.182515e-09 0 0
-0.9738141 -0.0378286 0.30670136 -1.7223416e-08 -1 8.21583e-09 0 0
-0.822618 -0.037828602 0.39750403 2.167142e-09 -1 9.518393e-09 0 0
-0.9738141 -0.037828602 0.41751546 -1.0497901e-08 -1 1.3715767e-08 0 0
-0.8175985 -0.0378286 0.47368562 6.5621966e-09 -1 2.5017801e-08 0 0
-0.6479445 -0.0378286 0 -2.5872103e-08 -1 -8.5533736e-10 0 0
-0.7018245 -0.03782859 0.102351785 -1.2358987e-07 -1 -6.831227e-08 0 0
-0.6789015 -0.0378286 0 0 -1 4.371139e-08 0 0
-0.29261556 -0.0378286 0.8304523 7.680092e-09 -1 -3.981576e-10 0 0
0 -0.0378286 0.7889526 -2.1229893e-09 -1 -2.0362309e-10 0 0
-0.45028993 -0.0378286 0.84863937 1.5988453e-08 -1 -2.7213138e-09 0 0
-0.46236163 -0.0378286 0.5032845 1.5976533e-09 -1 -1.4853491e-09 0 0
-0.69916284 -0.0378286 0.63342464 4.3871837e-10 -1 2.3477373e-09 0 0
-0.68413746 -0.0378286 0.48194063 1.034329e-08 -1 4.825168e-09 0 0
-0.29881108 -0.0378286 0.9643184 8.238927e-09 -1 -3.3282321e-09 0 0
-0.5181992 -0.0378286 1.6555918 6.929821e-11 -1 1.078231e-09 0 0
-0.30618095 -0.037828602 2.107507 -8.536862e-09 -1 -1.1959441e-08 0 0
-0.30618095 -0.037828602 2.3695326 -8.121067e-09 -1 2.2378266e-10 0 0
0 -0.037828594 0.18589216 3.3145642e-10 -1 3.2420306e-09 0 0
0 -0.037828594 0.36985213 0 -1 -1.055269e-09 0 0
-0.81591034 -0.0378286 0.55863255 3.4202947e-09 -1 1.9188784e-09 0 0
-0.9738141 -0.037828594 0.5259785 1.7320543e-08 -1 5.7405027e-09 0 0
-0.973979 -0.0378286 0.6283655 -1.7476902e-08 -1 1.0735392e-08 0 0
-0.25218648 -0.0378286 0.6157124 -6.5870043e-09 -1 -4.187455e-09 0 0
0 -0.037828594 0.5237712 -1.2833564e-09 -1 -6.3742926e-09 0 0
-0.8495078 -0.0378286 0.28872657 -8.415879e-09 -1 6.2077294e-09 0 0
0 -0.037828606 2.6298466 -1.4824564e-10 -0.99981195 0.01939315 0 0
-0.30618095 -0.0378286 2.6468701 0.0022887478 -0.99988705 0.0148546025 0 0
0 -0.037828606 2.3695326 -1.5359507e-10 -1 -6.423652e-09 0 0
-0.23186958 0.09043678 3.6431627 -0.17182183 -0.963876 0.20351991 0 0
-0.705906 -0.002731373 2.9508681 -0.044597805 -0.9737554 0.22318512 0 0
-0.53137726 0.013607393 3.0683217 -0.11206275 -0.96862173 0.22184202 0 0
-0.12588346 0.14883244 4.0404086 -0.1644144 -0.9407467 0.2965863 0 0
0 0.16076767 4.126207 0 -0.9556404 0.29453635 0 0
-0.25446898 0.095385276 3.6561956 -0.13165522 -0.9772459 0.16630527 0 0
-0.76495135 -0.037828602 0.18954408 2.8205339e-08 -1 6.864605e-08 0 0
-0.9738141 -0.0378286 0.26914537 -1.9518774e-08 -1 4.371139e-08 0 0
-0.85942745 -0.037828602 0.25267094 0 -1 4.704212e-08 0 0
-0.918411 -0.037828602 2.278788 0 -1 1.6652859e-08 0 0
-0.9063139 -0.0378286 1.6555918 0 -1 -1.5252599e-09 0 0
-0.9738141 -0.0378286 2.3698068 0 -1 4.371139e-08 0 0
-0.9383591 -0.0378286 2.3311763 1.8486143e-07 -1 4.371139e-08 0 0
-0.918411 -0.037828602 0.8801247 6.193165e-08 -1 2.5661077e-08 0 0
-0.918411 -0.0378286 1.3274338 0 -1 5.381343e-09 0 0
-0.9738141 -0.037828606 0.8078171 0 -1 4.371139e-08 0 0
-0.9383591 -0.037828606 0.82772964 9.055109e-09 -1 4.371139e-08 0 0
-0.9738141 -0.0378286 2.3509698 1.5195727e-08 -1 4.371139e-08 0 0
-0.7400525 -0.0378286 2.6469982 -3.3753314e-10 -1 -7.789559e-09 0 0
-0.9738141 -0.037828594 2.4093812 -8.6076874e-08 -1 -1.2841941e-08 0 0
-0.918411 -0.0378286 1.6555918 0 -1 -1.6830733e-09 0 0
-0.9738141 -0.0378286 2.7386847 0.0019600252 -0.9998183 -0.018957997 0 0
-0.9738141 -0.0378286 2.668109 -2.1105702e-09 -1 3.2501643e-10 0 0
-0.9738141 -0.0378286 2.5626388 -1.5992502e-08 -1 6.7083286e-09 0 0
-0.69860154 -0.03784952 2.8430822 -0.012381326 -0.98914754 0.14640313 0 0
-0.9738141 -0.03514871 2.8251135 -0.035200853 -0.96925 0.24354734 0 0
-0.9738141 -0.039667267 2.7839718 -0.0047186404 -0.9996023 0.027801698 0 0
-0.9738141 -0.011482808 2.8879569 -0.029380286 -0.96103793 0.27485064 0 0
-0.9738141 -0.018582067 2.8633292 -0.046236437 -0.93706065 0.34609196 0 0
-0.69887716 -0.019648647 2.901277 -0.065826796 -0.9441664 0.32282594 0 0
-0.4654819 -0.028205838 2.9132934 0.014845247 -0.994092 0.10752115 0 0
-0.20630008 0.01867866 3.2591844 -0.0009790566 -0.99126536 0.13187933 0 0
-0.21796209 -0.030104518 2.8698597 -0.0031243812 -0.9967533 0.08045661 0 0
-0.11206341 0.02033537 3.2710938 -0.0016977191 -0.9909123 0.1344987 0 0
0 -0.022026835 2.966566 -1.1871435e-09 -0.99493104 0.10055933 0 0
0 0.019964047 3.2684245 2.0511158e-10 -0.9904627 0.13778104 0 0
0.20414758 0.075732216 3.615694 0.16477543 -0.9613553 0.22055623 0 0
0.10351789 0.061781585 3.5690365 0.01767142 -0.98867744 0.14901255 0 0
0.16984868 0.05812633 3.5427604 0.04354283 -0.9831977 0.17727485 0 0
0.10467887 0.11877736 3.960442 0.17790924 -0.95727634 0.22797017 0 0
0.09847313 0.08577234 3.7414985 0.066336274 -0.98678684 0.14782186 0 0
0.85686517 -0.037828606 0.8539276 -1.8120568e-08 -1 4.724235e-09 0 0
0.93177557 -0.037828606 0.8189318 1.41610945e-08 -1 4.371139e-08 0 0
0.90561426 -0.037828602 0.8746776 -2.8943846e-08 -1 2.808888e-08 0 0
0.9066955 -0.037828606 0.7854166 2.901827e-08 -1 -6.481152e-08 0 0
0.97381413 -0.037828606 0.7893023 0 -1 -1.2724041e-07 0 0
0.85849035 -0.0378286 1.3274338 2.2816962e-10 -1 4.4829185e-09 0 0
0.90595233 -0.0378286 1.3274338 -1.1272429e-09 -1 5.4806115e-09 0 0
0.9023639 -0.037828602 2.2872796 -2.3843782e-08 -1 2.2755197e-08 0 0
0.9066955 -0.0378286 2.3731546 7.354389e-08 -1 -2.714847e-08 0 0
0.8409015 -0.037828602 2.3019834 -4.2326644e-09 -1 -1.2836267e-08 0 0
0.8601184 -0.037828606 2.4227357 2.3980938e-08 -1 -1.1640989e-08 0 0
0.5122933 -0.0378286 2.6562605 -0.002758655 -0.99996126 0.008367193 0 0
0.70156324 -0.037828602 2.7668324 -0.005724186 -0.9999835 0.00051126484 0 0
0.4215781 -0.03423252 2.8081636 -0.014536006 -0.9985586 0.051667616 0 0
0.70183563 -0.007261089 2.9317918 0.07616847 -0.95047075 0.30133668 0 0
0.4840542 -0.016069464 2.99624 0.09116942 -0.9738062 0.20830224 0 0
0.6988772 -0.019648647 2.901277 0.06582666 -0.9441666 0.3228254 0 0
0.73909926 -0.0378286 0.21466148 2.7602705e-09 -1 1.7310304e-08 0 0
0.6057551 -0.0378286 0.17131668 4.9697807e-10 -1 1.657451e-09 0 0
0.67286897 -0.0378286 0.11624372 3.7247094e-08 -1 -3.3620573e-08 0 0
0.5816543 -0.0378286 0 -9.457833e-10 -1 -3.2992193e-09 0 0
0.64794445 -0.0378286 0 2.0697664e-08 -1 -8.5542384e-10 0 0
0.7526598 -0.0378286 1.3274338 -2.9877498e-09 -1 4.818162e-10 0 0
0.6590586 -0.037828594 1.0308363 -2.8539162e-08 -1 1.848274e-08 0 0
0.7377497 -0.0378286 0.94508916 -1.9559874e-08 -1 9.85911e-09 0 0
0.7848464 -0.0378286 2.4997296 -3.7815276e-08 -1 1.080307e-08 0 0
0.7475958 -0.0378286 2.3464856 4.4721453e-09 -1 -1.4383569e-08 0 0
0.75410545 -0.037828594 0.7287235 1.7817285e-08 -1 -3.6667551e-09 0 0
0.8368813 -0.0378286 0.68259335 -2.2712419e-09 -1 -1.2065401e-08 0 0
0.97381413 -0.037828594 0.74842316 6.150584e-08 -1 -1.4025727e-07 0 0
0.6590586 -0.0378286 1.3274338 -4.0884487e-10 -1 -3.6407763e-09 0 0
0.5387541 -0.037828594 1.0544972 1.1971556e-08 -1 8.341181e-09 0 0
0.73349917 -0.03782859 2.1362283 -9.754821e-09 -1 -4.6502113e-09 0 0
0.6599107 -0.0378286 2.024827 4.031848e-08 -1 7.873944e-09 0 0
0.6055994 -0.0378286 2.171578 1.9916353e-08 -1 -6.023702e-09 0 0
0.5354295 -0.0378286 2.0091128 6.7653e-10 -1 1.8523141e-10 0 0
0.6353048 -0.037828606 0.8479665 3.852406e-09 -1 -2.048613e-09 0 0
0.6352333 -0.0378286 2.3989613 1.1039964e-08 -1 -2.6716882e-09 0 0
0.46056783 -0.0378286 2.1585684 1.0271606e-08 -1 -7.230661e-09 0 0
0.41974396 -0.0378286 2.042235 4.371227e-09 -1 -9.9886055e-09 0 0
0.2711879 -0.0378286 1.6555918 2.3176279e-09 -1 1.1177889e-10 0 0
0.28575534 -0.0378286 1.327434 1.7824703e-10 -1 1.6204843e-09 0 0
0.29881108 -0.0378286 0.9643184 -6.5966477e-10 -1 -3.3282253e-09 0 0
0.2711879 -0.0378286 1.9888251 1.3202759e-08 -1 -7.1325372e-09 0 0
0.6590586 -0.0378286 1.6555918 0 -1 1.6078356e-09 0 0
0.8602295 -0.0378286 1.6555918 -3.5281418e-09 -1 1.9024864e-09 0 0
0.75414443 -0.0378286 1.6555918 3.0884275e-09 -1 4.6517994e-09 0 0
0.9063139 -0.0378286 1.6555918 0 -1 -1.5252012e-09 0 0
0.3961612 -0.0378286 1.6555918 1.5752115e-09 -1 9.82934e-10 0 0
0.3961612 -0.0378286 1.327434 3.220048e-09 -1 -5.322791e-10 0 0
0.5181992 -0.0378286 1.3274338 0 -1 -4.9813758e-09 0 0
0.97381413 -0.0378286 0.30670136 2.7966362e-08 -1 8.215809e-09 0 0
0.8226181 -0.037828602 0.39750403 -2.1671067e-09 -1 9.51838e-09 0 0
0.8495077 -0.0378286 0.28872657 9.544275e-09 -1 6.2077157e-09 0 0
0.81759846 -0.0378286 0.47368562 -6.001314e-09 -1 2.501778e-08 0 0
0.97381413 -0.037828602 0.41751546 1.04979145e-08 -1 1.3715705e-08 0 0
0.97381413 -0.0378286 0.4778952 0 -1 4.371139e-08 0 0
0.7018244 -0.03782859 0.102351785 7.9004224e-08 -1 -6.831231e-08 0 0
0.67890155 -0.0378286 0 0 -1 4.371139e-08 0 0
0.2926156 -0.0378286 0.8304523 -3.7228847e-09 -1 -3.9816797e-10 0 0
0.41974396 -0.0378286 0.96334606 2.6313977e-08 -1 -5.182515e-09 0 0
0.4502899 -0.0378286 0.84863937 -6.7763373e-09 -1 -2.7213243e-09 0 0
0.46236163 -0.0378286 0.5032845 -1.5956616e-09 -1 -1.4853387e-09 0 0
0.69916284 -0.0378286 0.63342464 -9.746037e-10 -1 2.34772e-09 0 0
0.5181992 -0.0378286 1.6555918 0 -1 1.078224e-09 0 0
0.306181 -0.037828602 2.107507 1.3463191e-08 -1 -1.1959441e-08 0 0
0.306181 -0.037828602 2.3695326 9.996768e-09 -1 2.2378611e-10 0 0
0.68413746 -0.0378286 0.48194063 -1.0363173e-08 -1 4.825168e-09 0 0
0.68721986 -0.0378286 0.28430063 -4.901969e-09 -1 -6.741413e-09 0 0
0.81591034 -0.0378286 0.55863255 -9.955257e-09 -1 1.9188577e-09 0 0
0.97381413 -0.037828594 0.5259785 -2.7710287e-09 -1 5.740465e-09 0 0
0.973979 -0.0378286 0.6283655 2.654922e-08 -1 1.0735372e-08 0 0
0.25218648 -0.0378286 0.6157124 6.914219e-09 -1 -4.187441e-09 0 0
0.306181 -0.0378286 2.6468701 -0.0022887439 -0.99988705 0.0148546 0 0
0.5130778 0.005692046 3.0430586 0.17084478 -0.9477047 0.26957002 0 0
0.23186958 0.09043678 3.6431627 0.17182198 -0.963876 0.20351972 0 0
0.7059059 -0.002731373 2.9508681 0.044597767 -0.97375536 0.2231851 0 0
0.12588346 0.14883244 4.0404086 0.16441461 -0.94074667 0.29658663 0 0
0.5313773 0.013607393 3.0683217 0.11206237 -0.9686219 0.22184144 0 0
0.25446898 0.095385276 3.6561956 0.13165557 -0.97724587 0.16630518 0 0
0.76495135 -0.037828602 0.18954408 0 -1 6.864611e-08 0 0
0.97381413 -0.0378286 0.26914537 3.9037555e-08 -1 4.371139e-08 0 0
0.85942745 -0.037828602 0.25267094 0 -1 4.7042118e-08 0 0
0.91841114 -0.037828602 2.278788 -4.5145462e-08 -1 1.665286e-08 0 0
0.91841114 -0.0378286 1.6555918 0 -1 -1.6830733e-09 0 0
0.97381413 -0.0378286 2.3698068 0 -1 4.371139e-08 0 0
0.97381413 -0.037828594 2.4093812 8.607686e-08 -1 -1.2842003e-08 0 0
0.93835914 -0.0378286 2.3311763 -1.2048736e-07 -1 4.371139e-08 0 0
0.91841114 -0.037828602 0.8801247 -1.3751455e-07 -1 2.5661102e-08 0 0
0.91841114 -0.0378286 1.3274338 0 -1 5.3813465e-09 0 0
0.97381413 -0.037828606 0.8078171 0 -1 4.371139e-08 0 0
0.93835914 -0.037828606 0.82772964 0 -1 4.371139e-08 0 0
0.93177557 -0.0378286 2.3399343 -4.714789e-08 -1 4.371139e-08 0 0
0.97381413 -0.0378286 2.3509698 -3.039158e-08 -1 4.371139e-08 0 0
0.7400526 -0.0378286 2.6469982 -1.0684078e-09 -1 -7.789538e-09 0 0
0.97381413 -0.0378286 2.4689467 1.1373348e-07 -1 -2.7492328e-08 0 0
0.97381413 -0.0378286 2.7386847 -0.0019600445 -0.9998183 -0.018958094 0 0
0.97381413 -0.0378286 2.668109 -1.4270114e-09 -1 3.2504757e-10 0 0
0.97381413 -0.0378286 2.5626388 1.5992558e-08 -1 6.7083112e-09 0 0
0.97381413 -0.03514871 2.8251135 0.035201006 -0.9692498 0.24354823 0 0
0.6986016 -0.03784952 2.8430822 0.012381311 -0.98914754 0.1464029 0 0
0.97381413 -0.039667267 2.7839718 0.0047186613 -0.9996023 0.027801858 0 0
0.97381413 -0.011482808 2.8879569 0.029380297 -0.9610381 0.2748503 0 0
0.97381413 -0.018582067 2.8633292 0.046236582 -0.93706036 0.34609267 0 0
0.46548194 -0.028205838 2.9132934 -0.014845252 -0.9940921 0.10752106 0 0
0.20630008 0.01867866 3.2591844 0.0009790572 -0.99126536 0.1318793 0 0
0.21796215 -0.030104518 2.8698597 0.0031243842 -0.9967532 0.080456614 0 0
0.11206341 0.02033537 3.2710938 0.0016977221 -0.9909123 0.13449861 0 0
0 -0.0378286 0 0 -1 4.6807846e-09 0 0
-0.9738141 -0.0378286 0.4778952 7.474661e-09 -1 4.371139e-08 0 0
-0.9738141 -0.0378286 2.4689467 -1.1373332e-07 -1 -2.7492202e-08 0 0
3 0 1 2
3 3 4 5
3 6 7 0
3 8 9 10
3 11 12 8
3 10 13 14
3 15 16 17
3 18 19 20
3 21 22 23
3 24 25 26
3 27 28 29
3 30 31 28
3 32 33 34
3 13 35 32
3 36 20 37
3 12 38 9
3 39 40 12
3 34 41 42
3 20 43 44
3 45 44 43
3 35 38 46
3 33 46 41
3 37 44 47
3 47 48 49
3 50 51 52
3 53 54 51
3 55 56 57
3 58 48 45
3 59 43 19
3 60 45 43
3 15 59 19
3 61 56 49
3 62 41 63
3 64 65 66
3 67 66 65
3 68 69 70
3 54 71 72
3 71 63 73
3 74 75 76
3 75 46 38
3 73 41 46
3 62 77 53
3 61 48 78
3 79 49 56
3 80 47 79
3 65 76 67
3 74 29 28
3 74 81 82
3 83 76 75
3 84 67 83
3 85 83 40
3 86 82 87
3 88 29 65
3 86 73 74
3 80 89 90
3 80 55 91
3 1 26 25
3 7 92 1
3 93 26 94
3 95 5 96
3 92 94 26
3 3 97 92
3 69 27 98
3 99 88 64
3 27 100 98
3 101 102 15
3 16 103 17
3 15 104 101
3 105 14 106
3 107 8 108
3 108 10 105
3 40 75 38
3 109 17 103
3 110 37 22
3 18 111 16
3 106 102 112
3 61 53 50
3 78 62 61
3 50 57 56
3 86 72 71
3 34 78 58
3 13 60 59
3 32 58 60
3 14 59 102
3 22 80 90
3 110 113 114
3 115 18 36
3 115 110 114
3 116 117 118
3 119 24 93
3 120 121 24
3 116 23 122
3 122 123 2
3 124 123 23
3 25 2 1
3 121 122 25
3 21 118 113
3 125 6 0
3 125 2 123
3 125 126 127
3 31 81 28
3 90 23 22
3 89 124 90
3 128 129 130
3 4 131 5
3 132 6 129
3 133 134 135
3 136 137 134
3 138 135 139
3 140 141 142
3 143 142 141
3 144 145 146
3 147 148 149
3 150 151 152
3 152 153 154
3 155 156 157
3 138 157 133
3 158 159 143
3 160 136 133
3 161 162 136
3 163 164 156
3 159 165 142
3 166 167 168
3 157 160 133
3 156 169 157
3 167 170 171
3 168 171 172
3 173 51 174
3 174 54 175
3 176 55 57
3 168 177 166
3 165 178 142
3 166 179 165
3 140 178 180
3 181 176 173
3 182 164 183
3 184 185 186
3 187 188 189
3 190 154 191
3 192 54 72
3 193 192 194
3 195 196 194
3 169 196 160
3 164 194 169
3 175 182 174
3 168 181 197
3 172 198 176
3 171 199 198
3 185 200 201
3 201 195 151
3 81 195 82
3 200 202 196
3 187 203 202
3 202 204 161
3 205 82 195
3 186 201 150
3 205 194 192
3 89 199 206
3 199 55 198
3 207 128 148
3 208 132 128
3 209 207 147
3 5 210 96
3 211 208 207
3 212 131 208
3 150 190 213
3 186 214 184
3 215 150 213
3 216 180 217
3 141 218 219
3 220 140 216
3 139 221 222
3 134 223 224
3 135 224 221
3 196 161 160
3 225 226 218
3 227 170 158
3 143 219 228
3 180 222 217
3 174 181 173
3 182 197 181
3 57 173 176
3 72 205 192
3 197 163 177
3 179 138 178
3 177 155 179
3 178 139 180
3 144 199 170
3 229 227 230
3 231 143 228
3 231 227 158
3 232 233 234
3 147 235 209
3 149 236 147
3 146 233 237
3 237 238 146
3 239 238 240
3 148 130 237
3 237 149 148
3 234 145 229
3 240 6 127
3 130 240 238
3 126 240 127
3 153 81 241
3 146 206 144
3 239 89 206
3 0 7 1
3 3 7 4
3 6 4 7
3 8 12 9
3 11 39 12
3 10 9 13
3 15 19 16
3 18 16 19
3 21 110 22
3 24 121 25
3 27 30 28
3 30 68 31
3 32 35 33
3 13 9 35
3 36 18 20
3 12 40 38
3 39 85 40
3 34 33 41
3 20 19 43
3 45 48 44
3 35 9 38
3 33 35 46
3 37 20 44
3 47 44 48
3 50 53 51
3 53 77 54
3 55 79 56
3 58 78 48
3 59 60 43
3 60 58 45
3 15 102 59
3 61 50 56
3 62 42 41
3 64 88 65
3 67 242 66
3 68 30 69
3 54 77 71
3 71 77 63
3 74 73 75
3 75 73 46
3 73 63 41
3 62 63 77
3 61 49 48
3 79 47 49
3 80 37 47
3 65 29 76
3 74 76 29
3 74 28 81
3 83 67 76
3 84 242 67
3 85 84 83
3 86 74 82
3 88 27 29
3 86 71 73
3 80 91 89
3 80 79 55
3 1 92 26
3 7 3 92
3 93 24 26
3 95 3 5
3 92 97 94
3 3 95 97
3 69 30 27
3 99 100 88
3 27 88 100
3 101 112 102
3 16 111 103
3 15 17 104
3 105 10 14
3 107 11 8
3 108 8 10
3 40 83 75
3 109 104 17
3 110 36 37
3 18 243 111
3 106 14 102
3 61 62 53
3 78 42 62
3 50 52 57
3 86 87 72
3 34 42 78
3 13 32 60
3 32 34 58
3 14 13 59
3 22 37 80
3 110 21 113
3 115 243 18
3 115 36 110
3 116 121 117
3 119 120 24
3 120 117 121
3 116 21 23
3 122 23 123
3 124 125 123
3 25 122 2
3 121 116 122
3 21 116 118
3 125 127 6
3 125 0 2
3 125 124 126
3 31 241 81
3 90 124 23
3 89 126 124
3 128 132 129
3 4 132 131
3 132 4 6
3 133 136 134
3 136 162 137
3 138 133 135
3 140 225 141
3 143 159 142
3 144 227 145
3 147 207 148
3 150 201 151
3 152 151 153
3 155 163 156
3 138 155 157
3 158 170 159
3 160 161 136
3 161 204 162
3 163 183 164
3 159 167 165
3 166 165 167
3 157 169 160
3 156 164 169
3 167 159 170
3 168 167 171
3 173 52 51
3 174 51 54
3 176 198 55
3 168 197 177
3 165 179 178
3 166 177 179
3 140 142 178
3 181 172 176
3 182 193 164
3 184 188 185
3 187 185 188
3 190 152 154
3 192 175 54
3 193 175 192
3 195 200 196
3 169 194 196
3 164 193 194
3 175 193 182
3 168 172 181
3 172 171 198
3 171 170 199
3 185 187 200
3 201 200 195
3 81 151 195
3 200 187 202
3 187 189 203
3 202 203 204
3 205 87 82
3 186 185 201
3 205 195 194
3 89 91 199
3 199 91 55
3 207 208 128
3 208 131 132
3 209 211 207
3 5 131 210
3 211 212 208
3 212 210 131
3 150 152 190
3 186 215 214
3 215 186 150
3 216 140 180
3 141 225 218
3 220 225 140
3 139 135 221
3 134 137 223
3 135 134 224
3 196 202 161
3 225 220 226
3 227 144 170
3 143 141 219
3 180 139 222
3 174 182 181
3 182 183 197
3 57 52 173
3 72 87 205
3 197 183 163
3 179 155 138
3 177 163 155
3 178 138 139
3 144 206 199
3 229 145 227
3 231 158 143
3 231 230 227
3 232 149 233
3 147 236 235
3 149 232 236
3 146 145 233
3 237 130 238
3 239 146 238
3 148 128 130
3 237 233 149
3 234 233 145
3 240 129 6
3 130 129 240
3 126 239 240
3 153 151 81
3 146 239 206
3 239 126 89
