ply
format ascii 1.0
comment Created in Blender version 4.3.2
element vertex 94
property float x
property float y
property float z
property float nx
property float ny
property float nz
property float s
property float t
element face 148
property list uchar uint vertex_indices
end_header
-0.10351786 0.061781585 3.5690365 -0.01767136 -0.98867744 0.14901239 0 0
-0.20414755 0.075732216 3.615694 -0.16477527 -0.96135545 0.22055595 0 0
-0.16984868 0.05812633 3.5427604 -0.043542735 -0.98319787 0.17727426 0 0
-0.10467887 0.11877736 3.960442 -0.17790923 -0.95727634 0.22797023 0 0
0 0.09139888 3.7819486 -1.6523032e-09 -0.9897387 0.14288971 0 0
0 0.121618815 3.999186 3.1305365e-08 -0.959032 0.28329805 0 0
0 0.06047324 3.5596318 6.050528e-10 -0.9904627 0.13778093 0 0
-0.09847313 0.08577234 3.7414985 -0.06633733 -0.98678684 0.14782165 0 0
-0.7015632 -0.037828602 2.7668324 0.009127008 -0.9999566 0.0018965882 0 0
-0.50383127 -0.0378286 2.6562605 0.004510025 -0.99984735 0.016880885 0 0
-0.48662242 -0.0328622 2.776925 0.019695228 -0.9989201 0.042081006 0 0
-0.70183563 -0.007261089 2.9317918 -0.07616846 -0.95047057 0.30133703 0 0
-0.4840542 -0.016069464 2.99624 -0.09116945 -0.973806 0.20830262 0 0
-0.5130778 0.005692046 3.0430586 -0.17084493 -0.94770443 0.2695705 0 0
-0.27827376 -0.037828602 1.206034 -4.3592587e-09 -1 6.362737e-10 0 0
-0.7051672 -0.0378286 0 -2.5395077e-09 -1 -3.4562784e-09 0 0
-0.27827376 -0.0378286 0 0 -1 -4.4164894e-09 0 0
0 -0.037828602 1.206034 -1.5193756e-09 -1 -1.6255735e-09 0 0
0 -0.0378286 0 0 -1 -4.4164823e-09 0 0
-0.7051671 -0.0378286 1.4114404 -6.5034094e-09 -1 3.0173104e-09 0 0
-0.73359126 -0.037828594 2.412068 -3.9595673e-09 -1 -7.85621e-09 0 0
-0.811888 -0.037828594 1.4114404 2.4453747e-08 -1 5.3346233e-10 0 0
-0.23186958 0.09043678 3.6431627 -0.17182183 -0.963876 0.20351991 0 0
-0.705906 -0.002731373 2.9508681 -0.04459781 -0.9737554 0.22318514 0 0
-0.53137726 0.013607393 3.0683217 -0.11206275 -0.96862173 0.22184202 0 0
-0.12588346 0.14883244 4.0404086 -0.15619925 -0.9304544 0.3314459 0 0
0 0.16076776 4.0893373 0 -0.9172462 0.39832067 0 0
-0.25446898 0.095385276 3.6561956 -0.13165522 -0.9772459 0.16630527 0 0
-0.81188804 -0.0378286 0 -1.3130333e-09 -1 1.6834297e-09 0 0
-0.97381413 -0.037828594 1.2060338 1.6994836e-11 -1 1.6963828e-09 0 0
-0.97381413 -0.0378286 0 0 -1 1.5994979e-09 0 0
-0.27827376 -0.0378286 2.412068 -2.9465951e-08 -1 -4.6100723e-09 0 0
0 -0.037828606 2.412068 -1.5196868e-09 -1 -1.9206658e-08 0 0
-0.7400525 -0.0378286 2.6469982 -9.594172e-09 -1 -1.3882448e-08 0 0
-0.97381413 -0.0378286 2.7386847 0.0019600254 -0.9998183 -0.018958006 0 0
-0.97381413 -0.0378286 2.668109 0 -1 -3.4975178e-09 0 0
-0.69860154 -0.03784952 2.8430822 -0.0089267455 -0.98943186 0.14472383 0 0
-0.97381413 -0.03514871 2.8251135 -0.035200886 -0.96924996 0.24354762 0 0
-0.97381413 -0.039667267 2.7839718 -0.004718681 -0.9996023 0.02780194 0 0
-0.97381413 -0.011482808 2.8879569 -0.029380294 -0.961038 0.2748507 0 0
-0.97381413 -0.018582067 2.8633292 -0.046236437 -0.93706065 0.34609202 0 0
-0.69887716 -0.019648647 2.901277 -0.06582678 -0.9441664 0.3228258 0 0
-0.4654819 -0.028205838 2.9132934 0.06401138 -0.995474 0.07024338 0 0
-0.20630008 0.01867866 3.2591844 -0.0013770468 -0.99137855 0.13102163 0 0
-0.21796209 -0.030104518 2.8698597 -0.009855604 -0.9965941 0.081872895 0 0
-0.11206341 0.02033537 3.2710938 -0.0016976937 -0.9909123 0.13449867 0 0
0 -0.022026835 2.966566 -1.1871435e-09 -0.99493104 0.100559354 0 0
0 0.019964056 3.2684245 5.128694e-11 -0.9904627 0.13778102 0 0
-0.29568386 -0.0378286 2.6468701 0.00015820013 -0.99983925 0.017931096 0 0
0 -0.037828613 2.6298466 -8.937681e-10 -0.99981207 0.01938782 0 0
-0.97381413 -0.0378286 2.412068 2.770725e-09 -1 -4.6337676e-09 0 0
-0.49818987 -0.037828594 2.412068 -7.543494e-09 -1 -3.364019e-09 0 0
0.20414758 0.075732216 3.615694 0.16477543 -0.9613553 0.22055623 0 0
0.10351789 0.061781585 3.5690365 0.01767142 -0.98867744 0.14901255 0 0
0.16984868 0.05812633 3.5427604 0.04354283 -0.9831977 0.17727485 0 0
0.10467887 0.11877736 3.960442 0.17790942 -0.9572763 0.22797044 0 0
0.09847313 0.08577234 3.7414985 0.066337265 -0.98678684 0.14782152 0 0
0.5038313 -0.0378286 2.6562605 -0.004510025 -0.99984735 0.016880888 0 0
0.70156324 -0.037828602 2.7668324 -0.009127007 -0.9999566 0.0018965743 0 0
0.4866224 -0.0328622 2.776925 -0.019695267 -0.9989201 0.042081013 0 0
0.70183563 -0.007261089 2.9317918 0.07616843 -0.95047086 0.30133632 0 0
0.4840542 -0.016069464 2.99624 0.09116942 -0.9738062 0.20830224 0 0
0.6988772 -0.019648647 2.901277 0.06582666 -0.9441666 0.32282543 0 0
0.7051672 -0.0378286 0 3.8092622e-09 -1 -3.456275e-09 0 0
0.27827376 -0.037828602 1.206034 7.445492e-09 -1 -6.5065564e-10 0 0
0.27827376 -0.0378286 0 0 -1 -4.416475e-09 0 0
0.7335913 -0.037828594 2.412068 3.959568e-09 -1 -7.85621e-09 0 0
0.70516706 -0.0378286 1.4114404 7.899803e-09 -1 3.0173173e-09 0 0
0.811888 -0.037828594 1.4114404 -2.2263869e-08 -1 5.334831e-10 0 0
0.5130778 0.005692046 3.0430586 0.17084478 -0.9477047 0.26957002 0 0
0.23186958 0.09043678 3.6431627 0.17182198 -0.963876 0.20351972 0 0
0.7059059 -0.002731373 2.9508681 0.044597674 -0.9737555 0.22318423 0 0
0.12588346 0.14883244 4.0404086 0.15619947 -0.93045425 0.33144623 0 0
0.5313773 0.013607393 3.0683217 0.11206237 -0.9686219 0.22184144 0 0
0.25446898 0.095385276 3.6561956 0.13165557 -0.97724587 0.16630518 0 0
0.97381425 -0.037828594 1.2060338 1.14989005e-08 -1 1.6964036e-09 0 0
0.8118881 -0.0378286 0 2.6260658e-09 -1 1.6834505e-09 0 0
0.97381425 -0.0378286 0 0 -1 1.5995186e-09 0 0
0.27827376 -0.0378286 2.412068 3.0985397e-08 -1 -3.3231498e-09 0 0
0.97381425 -0.0378286 2.7386847 -0.0019600354 -0.9998183 -0.018958006 0 0
0.7400526 -0.0378286 2.6469982 7.51281e-09 -1 -1.3882485e-08 0 0
0.97381425 -0.0378286 2.668109 -6.145778e-09 -1 -3.4975178e-09 0 0
0.97381425 -0.03514871 2.8251135 0.035200886 -0.9692499 0.24354771 0 0
0.6986016 -0.03784952 2.8430822 0.008926752 -0.98943174 0.14472389 0 0
0.97381425 -0.039667267 2.7839718 0.004718671 -0.9996023 0.027801951 0 0
0.97381425 -0.011482808 2.8879569 0.029380733 -0.9610368 0.2748546 0 0
0.97381425 -0.018582067 2.8633292 0.046236616 -0.9370599 0.3460938 0 0
0.46548194 -0.028205838 2.9132934 -0.06401166 -0.995474 0.070243284 0 0
0.20630008 0.01867866 3.2591844 0.0013770332 -0.99137855 0.1310216 0 0
0.21796215 -0.030104518 2.8698597 0.0098555945 -0.9965941 0.081872895 0 0
0.11206341 0.02033537 3.2710938 0.0016976965 -0.9909123 0.13449863 0 0
0.49818993 -0.037828594 2.412068 9.069148e-09 -1 -3.3640364e-09 0 0
0.29568386 -0.0378286 2.6468701 -0.0001581985 -0.99983925 0.017931113 0 0
0.97381425 -0.0378286 2.412068 -4.149756e-09 -1 -4.6337676e-09 0 0
3 0 1 2
3 3 4 5
3 6 7 0
3 8 9 10
3 11 12 13
3 14 15 16
3 17 16 18
3 19 20 21
3 1 13 12
3 7 22 1
3 23 13 24
3 25 5 26
3 22 24 13
3 3 27 22
3 28 29 30
3 31 17 32
3 33 34 35
3 36 37 38
3 39 11 23
3 40 41 11
3 36 10 42
3 42 43 2
3 44 43 10
3 12 2 1
3 41 42 12
3 8 38 34
3 45 6 0
3 45 2 43
3 45 46 47
3 31 19 14
3 48 10 9
3 49 44 48
3 33 50 20
3 9 20 51
3 51 48 9
3 49 31 32
3 50 21 20
3 52 53 54
3 4 55 5
3 56 6 53
3 57 58 59
3 60 61 62
3 63 64 65
3 65 17 18
3 66 67 68
3 69 52 61
3 70 56 52
3 71 69 60
3 5 72 26
3 73 70 69
3 74 55 70
3 75 76 77
3 32 64 78
3 79 80 81
3 82 83 84
3 60 85 71
3 62 86 60
3 59 83 87
3 87 88 59
3 89 88 90
3 61 54 87
3 87 62 61
3 84 58 79
3 90 6 47
3 54 90 88
3 46 90 47
3 78 67 91
3 59 92 57
3 89 49 92
3 93 80 66
3 57 66 80
3 92 91 57
3 49 78 92
3 93 68 75
3 0 7 1
3 3 7 4
3 6 4 7
3 8 33 9
3 11 41 12
3 14 19 15
3 17 14 16
3 19 51 20
3 1 22 13
3 7 3 22
3 23 11 13
3 25 3 5
3 22 27 24
3 3 25 27
3 28 21 29
3 31 14 17
3 33 8 34
3 36 41 37
3 39 40 11
3 40 37 41
3 36 8 10
3 42 10 43
3 44 45 43
3 12 42 2
3 41 36 42
3 8 36 38
3 45 47 6
3 45 0 2
3 45 44 46
3 31 51 19
3 48 44 10
3 49 46 44
3 33 35 50
3 9 33 20
3 51 31 48
3 49 48 31
3 50 29 21
3 52 56 53
3 4 56 55
3 56 4 6
3 57 80 58
3 60 69 61
3 63 67 64
3 65 64 17
3 66 91 67
3 69 70 52
3 70 55 56
3 71 73 69
3 5 55 72
3 73 74 70
3 74 72 55
3 75 68 76
3 32 17 64
3 79 58 80
3 82 62 83
3 60 86 85
3 62 82 86
3 59 58 83
3 87 54 88
3 89 59 88
3 61 52 54
3 87 83 62
3 84 83 58
3 90 53 6
3 54 53 90
3 46 89 90
3 78 64 67
3 59 89 92
3 89 46 49
3 93 81 80
3 57 91 66
3 92 78 91
3 49 32 78
3 93 66 68
